<svg xmlns="http://www.w3.org/2000/svg" viewBox="0 0 8000 4676" preserveAspectRatio="none" class="az-negative az-center-center"  style="width: 2000px; height: 1169px; ">
        <path class="az-shape-fill" d="M0,0h8000v4676h-8000v-2338M4447,1931.81c-3.57,1.07 -11.67,3.86 -18,6.19c-6.32,2.33 -18.7,7.58 -27.5,11.65c-8.8,4.08 -22.97,11.29 -31.5,16.03c-8.52,4.74 -22.25,12.77 -30.5,17.83c-8.25,5.07 -24.56,15.46 -36.25,23.09c-11.69,7.64 -32.61,21.3 -46.5,30.35c-13.89,9.06 -30.2,19.59 -36.25,23.4c-6.05,3.81 -18.42,11.15 -27.5,16.31c-9.07,5.16 -25.95,14.05 -37.5,19.74c-11.55,5.7 -25.95,12.48 -32,15.06c-6.05,2.59 -16.85,6.7 -24,9.14c-7.15,2.44 -18.63,5.98 -25.5,7.87c-6.88,1.89 -18.35,4.57 -25.5,5.95c-7.15,1.38 -19.53,3.22 -27.5,4.08c-7.98,0.86 -23.5,1.98 -34.5,2.5c-11,0.52 -27.2,0.95 -36,0.96c-8.8,0.01 -25.9,-0.66 -38,-1.49c-12.1,-0.83 -26.5,-1.97 -32,-2.53c-5.5,-0.56 -16.97,-1.93 -25.5,-3.04c-8.52,-1.11 -22.25,-3.15 -30.5,-4.53c-8.25,-1.38 -24.45,-4.24 -36,-6.37c-11.55,-2.13 -25.5,-4.81 -31,-5.96c-5.5,-1.15 -21.7,-4.31 -36,-7.03c-14.3,-2.72 -31.18,-5.83 -37.5,-6.91c-6.32,-1.08 -15.55,-2.44 -20.5,-3.02c-4.95,-0.57 -17.1,-1.52 -27,-2.1c-12.51,-0.73 -22.12,-0.74 -31.5,-0.02c-7.42,0.57 -17.55,1.74 -22.5,2.61c-4.95,0.86 -13.96,3.23 -20.02,5.25c-6.51,2.17 -15.51,6.24 -22,9.94c-6.04,3.45 -15.03,9.28 -19.98,12.97c-4.95,3.69 -14.65,12.34 -21.55,19.24c-8.49,8.47 -14.84,15.93 -19.62,23.03c-3.89,5.77 -9.15,14.66 -11.7,19.75c-2.55,5.09 -6.37,14.31 -8.51,20.5c-2.13,6.19 -4.84,15.98 -6.01,21.75c-1.17,5.77 -2.79,15.45 -3.59,21.5c-0.8,6.05 -1.93,21.8 -2.5,35c-0.58,13.2 -1.52,34.57 -2.09,47.5c-0.57,12.92 -1.69,29.01 -2.48,35.75c-0.79,6.74 -2.36,16.41 -3.48,21.5c-1.12,5.09 -3.2,13.07 -4.61,17.75c-1.42,4.67 -4.4,12.55 -6.63,17.5c-2.23,4.95 -6.18,12.6 -8.78,17c-2.6,4.4 -6.91,10.92 -9.58,14.5c-2.67,3.58 -8.68,10.51 -13.36,15.4c-4.68,4.9 -12.33,12.11 -17.01,16.03c-4.67,3.92 -15.03,11.43 -23,16.69c-7.98,5.26 -19.67,12.74 -26,16.62c-8.48,5.2 -13.54,9.18 -19.25,15.16c-4.51,4.72 -9.09,10.71 -10.96,14.35c-3.07,5.99 -3.21,6.75 -3.25,18.25l-0.04,12c6.34,13.18 10.86,20.38 14.13,24.5c3.27,4.12 9.76,10.7 14.41,14.6c4.65,3.91 12.51,10.01 17.46,13.57c4.95,3.56 13.05,8.85 18,11.77c4.95,2.92 13.5,7.56 19,10.31c5.5,2.76 14.05,6.8 19,8.99c4.95,2.19 16.88,6.88 26.5,10.44c9.62,3.55 22.68,7.99 29,9.86c6.33,1.87 17.35,4.72 24.5,6.34c7.15,1.62 19.3,3.87 27,4.99c7.7,1.13 20.3,2.34 28,2.7c10.35,0.49 17.78,0.22 28.5,-1.03c7.98,-0.93 19,-2.58 24.5,-3.68c5.5,-1.09 17.87,-3.95 27.5,-6.34c9.62,-2.4 24.02,-6.37 32,-8.84c7.98,-2.46 22.38,-6.99 32,-10.05c9.62,-3.06 31,-10.12 47.5,-15.68c16.5,-5.56 41.36,-13.68 55.25,-18.04c13.89,-4.36 34.14,-10.39 45,-13.41c10.86,-3.02 26.5,-7.07 34.75,-9c8.25,-1.93 23.32,-5.08 33.5,-6.99c10.17,-1.91 24.8,-4.18 32.5,-5.04c7.7,-0.86 21.65,-1.82 31,-2.14c9.35,-0.32 24.88,-0.09 34.5,0.5c11.49,0.71 22.65,2.1 32.5,4.06c8.25,1.64 19.5,4.55 25,6.46c5.5,1.91 13.82,5.15 18.5,7.2c4.68,2.05 11.88,5.53 16,7.73c4.13,2.2 11.52,6.74 16.43,10.1c4.91,3.36 12.56,9.32 17,13.26c4.44,3.94 17.74,16.91 29.57,28.83c11.83,11.92 25.55,24.75 30.5,28.51c4.95,3.76 13.28,9.42 18.5,12.58c5.22,3.16 12.42,7.06 16,8.66c3.58,1.6 10.32,4.4 15,6.22c4.68,1.82 13.9,4.56 20.5,6.09c11.62,2.7 12.89,2.79 40,2.79c22.38,0 29.7,-0.34 36.5,-1.7c4.67,-0.94 11.88,-2.58 16,-3.64c4.12,-1.06 14.25,-4.14 22.5,-6.83c8.25,-2.69 20.17,-7.26 26.5,-10.15c6.33,-2.89 18.7,-9.09 27.5,-13.78c8.8,-4.69 22.52,-12.82 30.5,-18.08c7.98,-5.25 20.35,-13.93 27.5,-19.28c7.15,-5.35 17.05,-13.18 22,-17.41c4.95,-4.23 16.14,-14.27 24.87,-22.33c8.73,-8.05 21.33,-20.49 28.02,-27.64c6.68,-7.15 14.88,-16.15 18.21,-20c3.33,-3.85 9.44,-11.27 13.58,-16.5c4.13,-5.23 10.92,-14.45 15.08,-20.5c4.16,-6.05 10.78,-16.4 14.7,-23c3.93,-6.6 10,-17.62 13.5,-24.5c3.5,-6.87 9.04,-18.57 12.31,-26c3.27,-7.43 8.78,-20.47 12.23,-29c3.45,-8.53 9.17,-23.6 12.7,-33.5c3.53,-9.9 8.88,-26.1 11.88,-36c3,-9.9 7.95,-27.9 10.98,-40c3.04,-12.1 7.05,-30.1 8.91,-40c1.87,-9.9 4.66,-26.1 6.21,-36l2.82,-18v-108c-4.32,-22.48 -6.74,-33.73 -8.16,-39.5c-1.42,-5.77 -4.34,-15.9 -6.51,-22.5c-2.16,-6.6 -7.9,-20.1 -12.74,-30c-4.85,-9.9 -11.87,-22.5 -15.61,-28c-3.74,-5.5 -10.26,-14.05 -14.5,-19c-4.24,-4.95 -11.71,-12.78 -16.6,-17.41c-4.89,-4.62 -12.26,-10.96 -16.39,-14.07c-4.13,-3.11 -12,-8.48 -17.5,-11.92c-5.5,-3.44 -14.05,-8.22 -19,-10.61c-4.95,-2.39 -13.05,-5.89 -18,-7.78c-4.95,-1.89 -13.72,-4.61 -19.5,-6.04c-9.44,-2.34 -12.97,-2.65 -35,-3.1c-22.9,-0.47 -25.32,-0.34 -37,1.9c-6.88,1.32 -15.43,3.28 -19,4.35z" />
</svg>