<svg xmlns="http://www.w3.org/2000/svg" viewBox="0 0 1408 823" preserveAspectRatio="none">
    <path class="az-shape-fill" d="M1177.5,1.53c-4.95,0.8 -13.72,2.64 -19.5,4.08c-5.78,1.45 -15,4.19 -20.5,6.1c-5.5,1.91 -14.28,5.29 -19.5,7.51c-5.22,2.22 -15.57,7.07 -23,10.78c-7.43,3.71 -19.58,10.24 -27,14.5c-7.42,4.26 -20.02,11.82 -28,16.8c-7.98,4.98 -33.4,21.5 -56.5,36.71c-23.1,15.21 -48.52,31.73 -56.5,36.71c-7.97,4.98 -21.7,13.2 -30.5,18.27c-8.8,5.07 -26.35,14.31 -39,20.53c-12.65,6.22 -29.3,13.79 -37,16.8c-7.7,3.02 -19.85,7.32 -27,9.55c-7.15,2.24 -17.72,5.21 -23.5,6.6c-5.78,1.4 -15.68,3.44 -22,4.54c-6.32,1.1 -18.25,2.68 -26.5,3.5c-8.25,0.82 -25.35,1.89 -38,2.38c-13.03,0.5 -33.84,0.51 -48,0.03c-13.75,-0.47 -32.43,-1.55 -41.5,-2.41c-9.07,-0.85 -23.47,-2.46 -32,-3.56c-8.53,-1.11 -25.17,-3.61 -37,-5.55c-11.82,-1.95 -44,-7.98 -71.5,-13.4c-27.5,-5.43 -56.97,-11 -65.5,-12.39c-8.53,-1.39 -21.8,-3.26 -29.5,-4.15c-7.7,-0.89 -22.33,-1.66 -32.5,-1.7c-10.18,-0.04 -22.78,0.48 -28,1.15c-5.22,0.68 -13.78,2.29 -19,3.58c-5.22,1.29 -12.43,3.45 -16,4.79c-3.58,1.34 -9.43,3.91 -13,5.71c-3.57,1.8 -9.65,5.29 -13.5,7.76c-3.85,2.47 -11.05,7.74 -16,11.7c-4.95,3.97 -12.18,10.33 -16.07,14.13c-3.89,3.8 -9.48,9.84 -12.42,13.42c-2.95,3.58 -8.02,10.55 -11.28,15.5c-3.25,4.95 -7.63,12.6 -9.73,17c-2.1,4.4 -5.37,12.5 -7.28,18c-1.91,5.5 -4.41,14.05 -5.56,19c-1.15,4.95 -2.77,13.5 -3.58,19c-0.82,5.5 -1.94,16.52 -2.49,24.5c-0.55,7.98 -1.27,25.75 -1.59,39.5c-0.33,13.75 -1.04,31.97 -1.58,40.5c-0.54,8.53 -1.7,20.45 -2.56,26.5c-0.86,6.05 -3.06,16.85 -4.88,24c-1.82,7.15 -5.4,17.95 -7.95,24c-2.55,6.05 -6.93,14.82 -9.74,19.5c-2.81,4.68 -7.83,12.1 -11.16,16.5c-3.33,4.4 -10.34,12.27 -15.59,17.5c-5.25,5.23 -14.94,13.56 -21.54,18.52c-6.6,4.96 -17.62,12.34 -24.5,16.4c-6.88,4.05 -15.88,9.43 -20,11.94c-4.13,2.51 -11.14,8.19 -15.6,12.6c-5.95,5.9 -8.99,9.89 -11.48,15.03c-2.91,6.03 -3.43,8.25 -3.74,16c-0.3,7.39 0.05,10.25 1.95,16c1.27,3.85 4.39,10.15 6.92,14c2.53,3.85 7.04,9.67 10.03,12.93c2.98,3.26 9.47,9.29 14.42,13.41c4.95,4.12 12.82,10.04 17.5,13.16c4.68,3.12 11.65,7.5 15.5,9.74c3.85,2.24 13.3,7.21 21,11.05c7.7,3.84 21.42,9.93 30.5,13.52c9.07,3.6 23.02,8.55 31,11.02c7.97,2.46 20.35,5.91 27.5,7.65c7.15,1.74 19.3,4.23 27,5.53c7.7,1.3 19.96,2.84 27.25,3.43c9.17,0.74 17.17,0.75 26,0.05c7.01,-0.56 18.15,-1.93 24.75,-3.04c6.6,-1.11 19.42,-3.82 28.5,-6.02c9.07,-2.19 23.25,-5.97 31.5,-8.38c8.25,-2.42 29.18,-8.97 46.5,-14.56c17.33,-5.59 32.18,-10.53 33,-10.97c0.83,-0.44 17.7,-6.05 37.5,-12.47c19.8,-6.42 45.9,-14.55 58,-18.07c12.1,-3.52 31.23,-8.63 42.5,-11.36c11.28,-2.73 26.8,-6.15 34.5,-7.6c7.7,-1.45 20.08,-3.49 27.5,-4.52c7.43,-1.04 20.48,-2.41 29,-3.06c9.2,-0.7 23.22,-0.94 34.5,-0.59c10.45,0.33 24.85,1.47 32,2.54c7.15,1.07 18.18,3.29 24.5,4.94c6.32,1.64 16,4.66 21.5,6.7c5.5,2.04 15.62,6.61 22.5,10.16c6.88,3.55 16.4,9.24 21.17,12.65c4.77,3.41 12.6,9.57 17.4,13.7c4.8,4.13 14,13.35 20.44,20.5c6.44,7.15 15.71,16.85 20.6,21.56c4.89,4.71 13.38,11.92 18.88,16.03c5.5,4.11 14.5,10.04 20,13.18c5.5,3.14 14.95,7.71 21,10.17c6.05,2.46 15.27,5.58 20.5,6.93c5.22,1.35 14.23,3.17 20,4.04c6.24,0.94 16.99,1.57 26.5,1.57c8.8,-0.01 20.73,-0.64 26.5,-1.42c5.77,-0.78 15,-2.38 20.5,-3.57c5.5,-1.19 16.53,-4.31 24.5,-6.93c7.97,-2.62 19,-6.68 24.5,-9.02c5.5,-2.34 15.63,-7.1 22.5,-10.59c6.88,-3.49 17.9,-9.55 24.5,-13.48c6.6,-3.93 17.62,-11 24.5,-15.71c6.88,-4.71 17.22,-12.21 23,-16.66c5.77,-4.45 16.34,-13.04 23.49,-19.09c7.15,-6.05 20.37,-18.2 29.38,-27c9.01,-8.8 21.43,-21.62 27.59,-28.5c6.16,-6.88 14.99,-17.23 19.62,-23.01c4.63,-5.78 11.18,-14.33 14.55,-19c3.37,-4.67 8.82,-12.77 12.1,-17.99c3.28,-5.23 9.27,-15.57 13.3,-23c4.03,-7.43 10.88,-21.15 15.23,-30.5c4.35,-9.35 11.41,-25.78 15.69,-36.5c4.29,-10.72 9.71,-24.9 12.05,-31.5c2.34,-6.6 6.68,-19.65 9.64,-29c2.97,-9.35 7.4,-24.42 9.84,-33.5c2.45,-9.08 6.25,-24.6 8.45,-34.5c2.2,-9.9 5.36,-26.1 7.03,-36c1.66,-9.9 4.02,-26.55 5.24,-37c1.89,-16.22 2.22,-24.34 2.25,-55.5c0.02,-24.15 -0.41,-40.05 -1.27,-47c-0.72,-5.77 -2.17,-15.67 -3.24,-22c-1.06,-6.33 -3.26,-16.9 -4.89,-23.5c-1.62,-6.6 -5.03,-18.08 -7.57,-25.5c-2.54,-7.43 -7.69,-19.8 -11.44,-27.5c-3.76,-7.7 -9.96,-18.72 -13.78,-24.5c-3.82,-5.78 -9.82,-14.1 -13.32,-18.5c-3.5,-4.4 -10.68,-12.27 -15.95,-17.5c-5.27,-5.23 -14.07,-12.9 -19.55,-17.05c-5.48,-4.15 -13.79,-9.97 -18.47,-12.94c-4.68,-2.96 -13.9,-7.98 -20.5,-11.15c-6.6,-3.17 -15.6,-6.96 -20,-8.42c-4.4,-1.46 -12.72,-3.78 -18.5,-5.15c-9.04,-2.14 -13.42,-2.54 -31.5,-2.85c-15.12,-0.26 -23.52,0.04 -30,1.09z" />
</svg>