<svg xmlns="http://www.w3.org/2000/svg" viewBox="0 0 2500 356" preserveAspectRatio="none">
	<path class="az-shape-fill" d="M2141.9,213.58c0.88,0.39 4.75,1.13 8.6,1.63c3.85,0.51 8.46,1.57 10.25,2.36c1.99,0.88 6.55,1.43 11.75,1.43c4.68,0 8.72,0.45 9,1c0.28,0.55 1.27,0.79 2.21,0.54c0.94,-0.25 7.13,0.44 13.75,1.53c6.62,1.09 14.07,2.45 16.54,3.02c2.47,0.57 7.32,1.34 10.76,1.72c3.44,0.38 6.26,1.03 6.25,1.44c-0.01,0.41 1.68,1 3.74,1.3c2.06,0.31 4.65,1.03 5.75,1.62c1.1,0.59 5.15,0.94 9,0.78c3.85,-0.16 8.98,0.13 11.39,0.63c2.42,0.5 5.05,1.82 5.85,2.92c0.98,1.34 1.59,1.59 1.86,0.75c0.22,-0.69 1.07,-1.25 1.9,-1.25c0.82,0 1.95,0.9 2.5,2c0.55,1.1 1.79,2.01 2.75,2.02c1.59,0.02 1.57,-0.1 -0.15,-1.25c-1.05,-0.7 -1.61,-1.83 -1.25,-2.52c0.36,-0.69 0.09,-1.25 -0.6,-1.25c-0.69,0 -3.5,-1.12 -6.25,-2.48c-3.13,-1.55 -6.03,-2.29 -7.75,-2c-2.05,0.36 -3,-0.03 -3.75,-1.52c-0.78,-1.56 -0.61,-2.21 0.75,-2.94c1.27,-0.68 3.27,-0.2 7.25,1.72c3.03,1.46 5.61,3.01 5.75,3.44c0.14,0.43 1.2,0.44 2.35,0.03c1.52,-0.54 2.35,-0.26 3,1c0.49,0.96 1.68,1.74 2.65,1.74c0.96,-0.01 3.78,0.98 6.25,2.19c2.47,1.21 5.29,2.12 6.25,2.01c0.96,-0.11 2.31,0.49 3,1.34c0.69,0.84 2.38,2.09 3.75,2.78c1.38,0.69 2.61,2.03 2.75,2.97c0.21,1.43 -0.3,1.61 -3,1.1c-1.79,-0.34 -4.37,-1.17 -5.75,-1.85c-1.37,-0.68 -4.07,-2.01 -6,-2.96c-1.93,-0.95 -4.4,-1.54 -5.5,-1.31c-1.71,0.36 -1.56,0.59 1,1.6c1.65,0.65 4.13,1.67 5.5,2.27c1.38,0.6 3.29,1.49 4.25,1.98c0.96,0.49 3.54,1.22 5.74,1.63c3.3,0.62 4.2,0.43 5.25,-1.12c1.02,-1.5 1.65,-1.66 3.26,-0.79c1.1,0.59 4.14,2 6.75,3.12c2.61,1.12 5.43,2.04 6.25,2.04c0.82,0 1.72,0.45 2,1c0.28,0.55 2.64,1.96 5.25,3.14c2.61,1.18 7.68,3.98 11.25,6.22c3.57,2.24 6.61,4.43 6.75,4.86c0.14,0.43 1.49,0.8 3,0.83c2.35,0.04 2.57,-0.18 1.5,-1.5c-0.69,-0.85 -1.03,-1.99 -0.75,-2.54c0.28,-0.55 -0.4,-1 -1.5,-1c-1.1,0 -2.22,-0.45 -2.5,-1c-0.28,-0.55 -0.24,-1.34 0.08,-1.75c0.32,-0.41 3.58,-0.6 7.25,-0.42c3.67,0.18 7.12,0.63 7.67,0.99c0.55,0.37 3.25,0.75 6,0.86c2.75,0.11 5.34,0.22 5.75,0.26c0.41,0.03 0.75,0.74 0.75,1.56c0,0.82 -0.45,1.73 -1,2c-0.55,0.27 -1.68,0.05 -2.5,-0.5c-0.82,-0.55 -1.61,-0.62 -1.75,-0.16c-0.14,0.46 -1.71,1.14 -3.5,1.5c-2.42,0.49 -3.38,0.28 -3.75,-0.84c-0.33,-1 -1.75,-1.47 -4.25,-1.42c-2.06,0.04 -3.19,0.27 -2.5,0.5c0.69,0.23 1.25,1.1 1.25,1.92c0,0.82 0.68,1.73 1.5,2c0.82,0.27 2.63,0.5 4,0.5c1.38,0 2.49,0.56 2.48,1.25c-0.02,0.87 0.82,1.04 2.75,0.55c2.14,-0.54 3.06,-0.25 4.02,1.25c0.74,1.15 2.38,1.95 4,1.95c1.51,0 3.88,0.61 5.25,1.34c1.38,0.73 7,2.33 12.5,3.54c5.5,1.21 11.13,2.49 12.5,2.83c1.38,0.34 4.53,0.71 7,0.83c2.88,0.13 6.12,1.21 9,2.98c2.47,1.52 6.3,2.99 8.5,3.26c2.2,0.27 4.45,0.82 5,1.22c0.55,0.4 2.8,1.07 5,1.48c2.2,0.41 6.25,1.76 9,3.01c2.75,1.25 6.8,2.76 9,3.37c2.2,0.61 4.9,1.09 6,1.08c1.1,-0.02 2.68,0.67 3.5,1.53c0.82,0.86 3.19,1.78 5.25,2.04c2.06,0.27 3.97,0.94 4.25,1.49c0.33,0.65 1.28,0.61 2.75,-0.12c1.86,-0.93 2.47,-0.8 3.52,0.75c0.7,1.03 1.26,2.21 1.25,2.62c-0.01,0.41 1.78,0.98 3.98,1.25c2.2,0.27 4,0.95 4,1.5c0,0.55 1.35,1.23 3,1.5c1.65,0.27 3,0.84 2.99,1.25c0,0.41 1.35,1.31 6.01,3.25v42h-2500l-0.04,-11.75c-0.03,-8.36 0.33,-12.11 1.25,-13c0.76,-0.74 5.39,-1.48 11.29,-1.81c5.5,-0.31 10.45,-0.92 11,-1.36c0.55,-0.44 3.92,-1.11 7.5,-1.48c3.58,-0.37 6.95,-1.05 7.5,-1.5c0.55,-0.46 5.27,-1.14 10.5,-1.53c5.23,-0.38 9.95,-1.08 10.5,-1.55c0.55,-0.47 4.31,-1.22 8.36,-1.68c4.05,-0.46 7.54,-1.17 7.75,-1.59c0.21,-0.41 2.08,-0.75 4.14,-0.74c2.06,0.01 6.22,-0.49 9.25,-1.1c3.03,-0.61 8.65,-1.49 12.5,-1.94c3.85,-0.45 11.28,-1.33 16.5,-1.95c5.22,-0.62 10.18,-1.51 11,-1.97c0.82,-0.46 7.13,-1.17 14,-1.57c6.88,-0.4 12.95,-1.07 13.5,-1.47c0.55,-0.4 6.4,-1.01 13,-1.36c6.6,-0.34 13.57,-1.07 15.5,-1.61c1.93,-0.54 8.9,-1.27 15.5,-1.61c6.6,-0.34 12.45,-0.98 13,-1.41c0.55,-0.43 6.51,-1.06 13.25,-1.4c6.74,-0.34 12.47,-1.06 12.75,-1.61c0.28,-0.55 4.32,-1 9,-1c4.68,0 9.51,-0.5 10.75,-1.11c1.24,-0.61 9.38,-1.4 18.1,-1.75c8.72,-0.35 16.03,-0.98 16.25,-1.39c0.22,-0.41 1.75,-0.75 3.4,-0.75c1.65,0 3.17,-0.56 3.37,-1.25c0.3,-1 0.65,-0.99 1.75,0.02c0.88,0.81 4.34,1.26 9.63,1.25c5.16,-0.01 8.06,-0.39 7.75,-1.02c-0.27,-0.55 -0.05,-1 0.5,-1c0.55,0 1.34,0.11 1.75,0.25c0.41,0.14 0.64,0.59 0.5,1c-0.14,0.41 0.54,0.43 1.5,0.04c0.96,-0.39 3.32,-1.54 5.25,-2.56c1.93,-1.02 2.6,-1.6 1.5,-1.28c-1.21,0.35 -2.72,-0.13 -3.82,-1.19c-1.47,-1.42 -2.69,-1.62 -6.25,-1.01c-2.72,0.46 -4.62,0.36 -4.93,-0.25c-0.33,-0.67 -1.5,-0.67 -3.5,0c-2.33,0.78 -3.39,0.66 -4.75,-0.52c-1.2,-1.04 -3.44,-1.43 -7.13,-1.25c-3.23,0.16 -5.53,0.76 -5.75,1.52c-0.21,0.69 -1.27,1.25 -2.37,1.25c-1.1,0 -2.18,-0.34 -2.41,-0.75c-0.23,-0.41 -2.36,-0.69 -4.75,-0.62c-2.39,0.07 -5.46,0.7 -6.84,1.4c-1.37,0.7 -5.87,1.46 -10,1.7c-4.12,0.24 -8.4,0.41 -9.5,0.39c-1.1,-0.02 -6.72,-0.24 -12.5,-0.48c-5.78,-0.24 -12.75,-0.6 -15.5,-0.79c-3.76,-0.26 -4.94,-0.72 -4.76,-1.85c0.19,-1.2 -0.84,-1.45 -5.25,-1.25c-3.16,0.14 -5.49,-0.17 -5.49,-0.75c0,-0.55 1.46,-1.01 3.25,-1.02c2.86,-0.02 3.22,-0.32 3,-2.5c-0.24,-2.39 -0.04,-2.48 5.75,-2.48c4.67,0 6,0.33 6,1.5c0,0.82 0.45,1.5 1,1.5c0.55,0 0.99,-0.79 0.98,-1.75c-0.02,-1.16 1.07,-2.01 3.25,-2.51c1.8,-0.42 4.17,-0.77 5.27,-0.78c1.1,-0.01 3.24,1.12 4.75,2.51c1.51,1.39 2.49,3.1 2.18,3.78c-0.32,0.69 0.16,0.35 1.06,-0.75c0.99,-1.21 3.49,-2.27 6.32,-2.69c2.58,-0.38 8.18,-0.72 12.44,-0.75c4.26,-0.03 7.98,-0.51 8.25,-1.06c0.27,-0.55 1.85,-1 3.5,-1c1.65,0 4.69,-0.69 6.75,-1.54c2.97,-1.22 10.92,-1.72 38.25,-2.39c18.98,-0.47 35.85,-1.17 37.5,-1.56c1.65,-0.4 3.9,-0.26 5,0.31c1.1,0.57 3.91,1.29 6.25,1.61c3.15,0.43 4.57,0.18 5.5,-0.97c0.69,-0.85 2.49,-1.52 4,-1.5c1.51,0.02 2.95,0.61 3.19,1.29c0.31,0.87 0.76,0.72 1.5,-0.5c0.94,-1.55 2.49,-1.71 13.81,-1.38c8.61,0.25 13.72,-0.03 15.75,-0.87c1.67,-0.69 10.75,-1.57 20.5,-1.99c9.63,-0.42 18.63,-0.71 20,-0.66c1.38,0.05 2.95,-0.33 3.5,-0.85c0.55,-0.52 10.23,-1.24 21.5,-1.58c11.27,-0.35 22.98,-0.86 26,-1.13c4.48,-0.41 5.84,-0.16 7.35,1.36c1.08,1.09 1.6,2.59 1.25,3.61c-0.36,1.06 -0.1,1.74 0.65,1.72c0.69,-0.02 2.15,-0.7 3.25,-1.52c1.1,-0.82 2.34,-1.48 2.75,-1.47c0.41,0.01 0.52,0.69 0.25,1.52c-0.27,0.82 -0.05,1.5 0.5,1.5c0.55,0 1.2,-0.34 1.44,-0.75c0.24,-0.41 2.49,-0.41 5,0c2.51,0.41 5.12,0.43 5.81,0.05c0.69,-0.39 2.83,-0.84 4.75,-1c1.92,-0.16 4.06,0.15 4.75,0.7c0.83,0.67 1.42,0.67 1.75,0c0.28,-0.56 4.6,-1.01 9.75,-1.02c5.44,-0.01 9.66,0.43 10.25,1.08c0.72,0.79 1.62,0.72 3.2,-0.23c1.83,-1.1 3.09,-1.1 7.5,0.04c3.12,0.81 6.94,1.1 9.3,0.71c2.2,-0.36 5.8,-0.92 8,-1.24c2.2,-0.32 4.34,-1.2 4.75,-1.96c0.51,-0.94 2.6,-1.37 6.5,-1.34c4.25,0.03 6.07,0.48 6.97,1.75c1.15,1.61 1.22,1.61 1.25,-0.04c0.02,-0.96 0.48,-1.75 1.03,-1.75c0.55,0 1.05,0.56 1.12,1.25c0.07,0.69 0.07,1.81 0,2.5c-0.08,0.89 1.88,1.25 6.88,1.25c5.56,0 7,-0.31 7,-1.5c0,-0.93 0.94,-1.5 2.5,-1.5c1.38,0 2.65,-0.56 2.83,-1.25c0.25,-0.95 4.45,-1.21 17.25,-1.09c11.26,0.11 17,0.52 17.17,1.25c0.14,0.6 1.94,1.08 4,1.07c2.06,-0.01 4.65,0.65 5.75,1.47c1.1,0.82 3.01,1.5 4.25,1.52c1.24,0.02 2.4,-0.53 2.59,-1.22c0.24,-0.88 2.41,-1.18 7.25,-1.03c4.58,0.15 7.42,0.73 8.41,1.72c0.95,0.95 3.44,1.51 6.75,1.53c2.89,0.01 5.25,0.36 5.24,0.78c0,0.41 5.06,1.14 11.25,1.62c6.19,0.48 11.93,1.26 12.76,1.73c0.83,0.47 4.09,1.54 7.25,2.38c4.57,1.21 5.94,1.26 6.67,0.27c0.64,-0.87 3.46,-1.16 9.25,-0.97c4.58,0.15 8.78,0.67 9.33,1.15c0.55,0.48 3.48,1.59 6.5,2.48c3.02,0.89 6.96,1.61 8.75,1.6c1.79,-0.01 3.36,0.43 3.5,0.96c0.14,0.54 4.98,1.18 10.75,1.44c6.14,0.27 10.71,0.92 11,1.55c0.27,0.6 2.42,1.41 4.77,1.81c2.35,0.4 4.26,1.06 4.25,1.47c-0.01,0.41 1.56,0.75 3.48,0.75c1.92,0 3.5,-0.45 3.5,-1c0,-0.55 0.9,-1 2,-1c1.1,0 2,0.45 2,1c0,0.55 2.48,1.23 5.5,1.5c3.02,0.27 5.73,0.95 6,1.5c0.27,0.55 2.75,1 5.5,1c2.75,0 6.69,0.69 8.75,1.53c2.06,0.84 6,1.78 8.75,2.08c2.75,0.31 5.34,0.75 5.75,0.97c0.41,0.23 3.45,0.64 6.75,0.92c3.3,0.27 6.9,0.95 8,1.5c1.1,0.55 2.9,1 4,1c1.1,0 2.34,0.66 2.75,1.48c0.62,1.23 5.22,1.55 27.25,1.94c16.26,0.28 26.69,0.85 27,1.47c0.27,0.55 2.3,1.08 4.5,1.16c2.2,0.09 7.56,0.68 11.91,1.31c6.45,0.94 8.16,1.56 9.25,3.4c0.74,1.24 2.12,2.27 3.09,2.29c0.96,0.02 2.42,-0.67 3.25,-1.54c1.11,-1.18 3.38,-1.58 8.75,-1.54c5.06,0.03 7.7,0.5 8.75,1.54c0.83,0.82 1.5,1.95 1.5,2.5c0,0.55 1.01,1.19 2.25,1.42c1.24,0.23 5.73,0.34 9.99,0.25c5.12,-0.11 7.91,-0.59 8.25,-1.42c0.28,-0.69 1.64,-1.25 3.01,-1.25c1.38,0 2.72,0.45 3,1c0.28,0.55 1.63,1 3,1c1.38,0 3.29,0.42 4.25,0.94c0.96,0.51 7.15,1.17 13.75,1.46c8.3,0.36 12.21,0.92 12.69,1.81c0.51,0.94 1.93,1.08 5.25,0.54c2.51,-0.41 4.56,-0.41 4.56,0c0,0.41 4.95,0.64 11,0.5c7.77,-0.18 11.95,0.17 14.25,1.17c1.79,0.78 8.42,2 14.75,2.7c6.33,0.71 13.53,1.26 16,1.24c2.47,-0.03 6.3,-0.55 8.5,-1.16c2.65,-0.73 11.44,-0.93 26,-0.59c20.17,0.47 21.87,0.38 20.5,-1.09c-0.83,-0.88 -1.05,-1.64 -0.5,-1.67c0.55,-0.04 2.24,-0.24 3.75,-0.46c1.95,-0.27 2.75,0.05 2.75,1.11c0,0.82 -0.79,1.67 -1.75,1.88c-1.24,0.27 -1.09,0.42 0.5,0.5c1.24,0.06 2.43,0.45 2.65,0.87c0.22,0.41 5.06,0.97 10.75,1.24c5.69,0.27 17.77,0.49 43.32,0.51l1.26,-2.75c1.11,-2.41 1.83,-2.75 5.76,-2.75c2.75,0 4.63,0.49 4.84,1.25c0.26,0.98 0.64,0.99 1.75,0.04c0.96,-0.82 7.96,-1.39 21.66,-1.75c13.66,-0.36 20.88,-0.95 22.19,-1.79c1.58,-1.02 2.41,-0.97 4.45,0.25c1.93,1.15 2.81,1.23 3.81,0.33c0.72,-0.65 5.71,-1.38 11.3,-1.64c5.5,-0.26 16.75,-0.98 25,-1.6c8.25,-0.62 18.15,-1.6 22,-2.17c3.85,-0.57 11.05,-1.3 16,-1.62c4.95,-0.32 9.45,-0.91 10,-1.33c0.55,-0.42 6.17,-1.05 12.5,-1.42c6.33,-0.37 12.4,-1.08 13.5,-1.58c1.1,-0.5 8.75,-1.41 17,-2.02c8.25,-0.61 21.53,-1.65 29.5,-2.32c7.97,-0.67 15.17,-1.48 16,-1.8c0.83,-0.32 6.45,-1.32 12.5,-2.22c6.05,-0.9 14.6,-1.92 19,-2.26c4.4,-0.34 8.45,-0.98 9,-1.41c0.55,-0.43 3.92,-1.04 7.5,-1.35c3.58,-0.32 9.42,-1.18 13,-1.91c3.58,-0.74 7.17,-1.61 8,-1.94c0.83,-0.33 4.2,-0.85 7.5,-1.16c3.3,-0.31 7.35,-1.24 9,-2.07c1.65,-0.83 4.01,-1.52 5.25,-1.52c1.24,0 2.24,-0.34 2.24,-0.76c-0.01,-0.41 3.03,-1.12 6.75,-1.57c3.72,-0.45 7.21,-1.17 7.76,-1.59c0.55,-0.43 3.25,-1.38 6,-2.1c2.75,-0.73 6.35,-1.36 8,-1.41c1.65,-0.05 3.56,-0.42 4.25,-0.83c0.69,-0.41 1.92,-0.52 2.75,-0.24c0.83,0.27 1.72,0.05 2,-0.5c0.28,-0.55 2.3,-1.23 4.5,-1.5c2.2,-0.27 4.16,-1.06 4.36,-1.75c0.21,-0.73 2.73,-1.46 6.03,-1.75c3.31,-0.29 5.97,-1.06 6.39,-1.86c0.46,-0.86 1.64,-1.15 3.22,-0.78c1.39,0.32 3.84,-0.09 5.5,-0.92c1.65,-0.83 4.13,-1.47 5.5,-1.43c1.38,0.04 3.17,-0.63 4,-1.5c0.83,-0.87 3.3,-1.8 5.5,-2.07c2.2,-0.27 5.35,-0.62 7,-0.77c1.65,-0.15 3.67,-0.67 4.5,-1.15c0.83,-0.48 3.75,-1.46 6.5,-2.16c3.03,-0.77 6.68,-1 9.27,-0.57c3.13,0.52 4.26,0.38 4.25,-0.54c-0.01,-0.8 0.88,-1.07 2.48,-0.75c1.38,0.27 3.06,0.07 3.75,-0.46c0.69,-0.53 3.5,-1.26 6.25,-1.64c2.75,-0.37 5.45,-1.03 6,-1.45c0.55,-0.42 3.25,-1.09 6,-1.49c2.75,-0.4 5.45,-1.08 6,-1.51c0.55,-0.44 3.92,-1.09 7.5,-1.45c3.58,-0.36 8.19,-1.3 10.25,-2.08c2.06,-0.78 5.21,-1.43 7,-1.44c1.79,-0.01 5.84,-0.01 9,0c3.16,0.01 6.65,-0.43 7.75,-0.98c1.1,-0.55 4.36,-1.13 7.25,-1.29c2.89,-0.16 5.81,-0.61 6.5,-1c0.69,-0.39 4.29,-0.7 8,-0.69c3.71,0.01 9.67,-0.47 13.25,-1.07c3.58,-0.6 8.75,-1.29 11.5,-1.53c2.75,-0.24 5.67,-1.13 6.5,-1.98c1.1,-1.13 3.63,-1.53 9.5,-1.53c4.4,0 10.03,-0.44 12.5,-0.99c2.47,-0.54 6.53,-1.21 9,-1.48c2.47,-0.27 6.08,-1.44 8,-2.61c3.01,-1.82 4.44,-2.03 10.25,-1.47c4.26,0.41 6.75,0.28 6.75,-0.36c0,-0.57 1.5,-0.79 3.5,-0.5c2.78,0.4 4.04,-0.01 6.14,-2c1.89,-1.79 3.66,-2.47 6.25,-2.38c1.99,0.07 4.96,0.42 6.61,0.79c1.65,0.37 4.8,0.14 7,-0.52c2.58,-0.77 7.54,-0.99 14,-0.63c8.21,0.47 10.8,0.25 14.5,-1.23c3.93,-1.57 7.85,-1.79 31,-1.78c15.99,0.01 27.29,-0.39 28.5,-1c1.23,-0.62 12.21,-0.95 28.5,-0.86c14.58,0.09 31.68,0.57 38,1.07c6.32,0.5 25.13,1.28 72.06,2.53l0.47,-2.25c0.43,-2.07 1.02,-2.25 7.47,-2.25c6.22,0 6.83,-0.17 5.5,-1.5c-0.82,-0.82 -1.21,-1.98 -0.85,-2.57c0.36,-0.59 1.37,-0.75 2.25,-0.36zM499.98,268.75c-0.02,1.49 0.54,1.64 3.75,1.01c2.07,-0.41 4.67,-0.73 5.77,-0.72c1.1,0.01 1.77,-0.21 1.5,-0.48c-0.27,-0.27 -1.94,-0.86 -3.71,-1.29c-1.77,-0.44 -4.13,-0.68 -5.25,-0.53c-1.16,0.15 -2.05,1.02 -2.06,2.02zM349.69,287.21c-4.29,0.39 -8.08,0.96 -8.42,1.25c-0.34,0.29 2.73,0.54 6.81,0.55c5.39,0.01 8.51,-0.52 11.42,-1.96c2.2,-1.09 3.44,-1.99 2.75,-2.02c-0.69,-0.02 -1.48,-0.94 -1.75,-2.04c-0.27,-1.1 -0.92,-2 -1.44,-2c-0.52,0 -1.08,1.24 -1.25,2.75c-0.3,2.67 -0.55,2.77 -8.12,3.46zM2340.54,255c0.63,0 1.09,0.79 1.04,1.75c-0.06,1.03 -1.01,1.85 -2.34,2c-1.23,0.14 -2.33,-0.11 -2.44,-0.55c-0.11,-0.44 0.43,-1.34 1.2,-2c0.77,-0.66 1.91,-1.2 2.54,-1.2zM2489.65,290.39c1.02,0.49 3.2,1.39 4.85,2.01c1.65,0.62 3.56,1.46 4.25,1.86c0.69,0.41 1.25,1.87 1.25,3.24c0,1.38 -0.45,2.39 -1,2.25c-0.55,-0.14 -3,-1.82 -5.45,-3.75c-2.45,-1.93 -4.75,-4.18 -5.11,-5c-0.51,-1.18 -0.25,-1.31 1.2,-0.61zM1241.3,320.98c0.66,-0.01 1.77,0.55 2.47,1.25c0.7,0.7 1.26,1.6 1.25,2.02c-0.01,0.41 -1.14,0.75 -2.52,0.75c-1.37,0 -2.72,-0.45 -3,-1c-0.28,-0.55 -0.25,-1.45 0.05,-2c0.3,-0.55 1.09,-1.01 1.75,-1.02z" />
</svg>
