<svg xmlns="http://www.w3.org/2000/svg" viewBox="0 0 8100 8100" preserveAspectRatio="none" class="az-negative az-center-center"  style="width: 2000px; height: 2000px; ">
	<path class="az-shape-fill" d="M0,0h8100v8100h-8100v-4050M4000.5,3552.03c-7.15,0.59 -22.45,2.66 -34,4.59c-11.55,1.93 -27.98,5.26 -36.5,7.39c-8.53,2.13 -20.79,5.47 -27.25,7.43c-6.46,1.96 -17.94,5.86 -25.5,8.67c-7.56,2.81 -21.4,8.49 -30.75,12.61c-9.35,4.13 -23.07,10.77 -30.5,14.77c-7.42,3.99 -15.75,8.59 -18.5,10.22c-2.75,1.63 -9.72,5.88 -15.5,9.44c-5.78,3.57 -16.35,10.7 -23.5,15.86c-7.15,5.16 -18.4,13.77 -25,19.13c-6.6,5.36 -17.88,15.29 -25.07,22.06c-7.19,6.77 -17.55,17.03 -23.04,22.8c-5.48,5.78 -14.27,15.67 -19.53,22c-5.26,6.33 -12.94,16 -17.06,21.5c-4.12,5.5 -11.1,15.4 -15.51,22c-4.41,6.6 -10.04,15.38 -12.52,19.5c-2.48,4.13 -7.76,13.57 -11.73,21c-3.97,7.42 -9.6,18.68 -12.52,25c-2.91,6.32 -6.76,14.87 -8.55,19c-1.79,4.13 -5.7,14.25 -8.7,22.5c-2.99,8.25 -7.61,22.65 -10.26,32c-2.65,9.35 -6.21,23.53 -7.9,31.5c-1.69,7.97 -4.21,21.47 -5.58,30c-1.37,8.52 -2.96,20.45 -3.52,26.5c-0.56,6.05 -1.31,24.28 -1.66,40.5c-0.41,19.14 -0.22,35.12 0.55,45.5c0.65,8.8 1.84,21.18 2.65,27.5c0.81,6.33 2.38,16.9 3.5,23.5c1.11,6.6 3.59,18.75 5.51,27c1.92,8.25 5.31,21.3 7.54,29c2.23,7.7 6.51,20.75 9.51,29c3,8.25 8.23,21.3 11.62,29c3.39,7.7 9.51,20.52 13.6,28.5c4.09,7.97 11.49,21.25 16.44,29.5c4.96,8.25 12.63,20.18 17.06,26.5c4.43,6.33 11.9,16.45 16.6,22.5c4.71,6.05 11.25,14.17 14.55,18.05c3.3,3.88 10.36,11.76 15.7,17.5c5.33,5.74 16.36,16.61 24.5,24.13c8.14,7.53 19.53,17.46 25.3,22.08c5.77,4.61 16.12,12.41 23,17.33c6.88,4.92 17.9,12.36 24.5,16.55c6.6,4.19 19.2,11.56 28,16.39c8.8,4.83 22.97,11.91 31.5,15.73c8.52,3.82 20.45,8.87 26.5,11.21c6.05,2.34 18.2,6.6 27,9.45c8.8,2.85 22.07,6.72 29.5,8.59c7.42,1.87 19.35,4.58 26.5,6.01c7.15,1.44 20.42,3.72 29.5,5.07c10.38,1.55 25.22,2.84 40,3.47c12.92,0.56 33.63,0.75 46,0.43c12.38,-0.32 27.45,-1.04 33.5,-1.61c6.05,-0.56 19.1,-2.36 29,-4c9.9,-1.64 22.95,-4.09 29,-5.46c6.05,-1.37 15.5,-3.65 21,-5.07c5.5,-1.42 16.08,-4.54 23.5,-6.93c7.42,-2.39 19.35,-6.56 26.5,-9.27c7.15,-2.71 19.3,-7.76 27,-11.23c7.7,-3.46 19.85,-9.42 27,-13.24c7.15,-3.82 15.03,-8.1 17.5,-9.52c2.47,-1.42 9.9,-5.94 16.5,-10.05c6.6,-4.11 17.63,-11.53 24.5,-16.5c6.88,-4.97 17.9,-13.41 24.5,-18.77c6.6,-5.36 16.56,-13.93 22.12,-19.06c5.57,-5.12 16.15,-15.61 23.52,-23.31c7.37,-7.7 16.79,-18.05 20.94,-23c4.15,-4.95 10.93,-13.5 15.06,-19c4.13,-5.5 10.81,-14.73 14.84,-20.5c4.03,-5.78 11.26,-17.02 16.06,-25c4.8,-7.97 12.8,-22.6 17.77,-32.5c4.97,-9.9 11.15,-22.95 13.73,-29c2.58,-6.05 7.14,-17.75 10.14,-26c3,-8.25 7.22,-21.08 9.36,-28.5c2.15,-7.42 5.48,-20.25 7.4,-28.5c1.92,-8.25 4.62,-21.98 5.99,-30.5c1.37,-8.53 3.29,-22.03 4.25,-30c1.37,-11.36 1.76,-22.63 1.78,-52c0.02,-24.23 -0.43,-41.75 -1.27,-49.5c-0.72,-6.6 -2.4,-19.2 -3.75,-28c-1.34,-8.8 -4.07,-23.43 -6.06,-32.5c-1.99,-9.08 -5.77,-23.93 -8.41,-33c-2.64,-9.08 -7.14,-22.8 -10.01,-30.5c-2.87,-7.7 -7.49,-19.4 -10.27,-26c-2.78,-6.6 -8.28,-18.3 -12.22,-26c-3.94,-7.7 -10.23,-19.4 -13.99,-26c-3.75,-6.6 -10.87,-18.07 -15.81,-25.5c-4.94,-7.42 -12.7,-18.45 -17.25,-24.5c-4.55,-6.05 -11.85,-15.27 -16.24,-20.5c-4.38,-5.22 -12.41,-14.23 -17.83,-20.01c-5.42,-5.78 -15.71,-16.15 -22.86,-23.05c-7.15,-6.89 -20.2,-18.28 -29,-25.29c-8.8,-7.02 -22.07,-16.97 -29.5,-22.11c-7.42,-5.14 -18.9,-12.62 -25.5,-16.63c-6.6,-4 -17.85,-10.4 -25,-14.22c-7.15,-3.82 -19.98,-10.07 -28.5,-13.88c-8.53,-3.82 -23.15,-9.8 -32.5,-13.3c-9.35,-3.5 -22.4,-7.95 -29,-9.9c-6.6,-1.95 -18.52,-5.11 -26.5,-7.01c-7.97,-1.91 -22.6,-4.87 -32.5,-6.59c-9.9,-1.72 -23.85,-3.8 -31,-4.63c-7.9,-0.91 -24.77,-1.62 -43,-1.8c-16.5,-0.16 -34.05,-0.15 -39,0.04c-4.95,0.19 -14.85,0.82 -22,1.41z" />
</svg>
