<svg xmlns="http://www.w3.org/2000/svg" viewBox="0 0 2500 411" preserveAspectRatio="none">
	<path class="az-shape-fill" d="M779,221.17c1.92,-0.06 6.2,0.49 9.5,1.23c5.35,1.19 6.13,1.16 7.2,-0.29c0.92,-1.25 1.38,-1.33 2,-0.36c0.44,0.69 1.93,1.14 3.3,1c1.38,-0.14 2.42,0.2 2.32,0.75c-0.1,0.55 3.73,1.51 8.5,2.14c5.31,0.7 9.55,0.8 10.93,0.25c1.24,-0.49 4.23,-0.56 6.64,-0.14c3.31,0.56 4.81,0.38 6.09,-0.75c1.26,-1.11 2.52,-1.28 4.86,-0.65c1.74,0.47 4.96,1.2 7.16,1.63c2.24,0.44 5.54,0.35 7.5,-0.2c1.92,-0.54 4.32,-1.72 5.32,-2.63c1.48,-1.34 2.81,-1.5 7,-0.85c2.85,0.44 8.1,1.04 11.68,1.34c3.58,0.3 6.95,0.92 7.5,1.39c0.55,0.47 1.67,0.45 2.5,-0.05c0.83,-0.49 4.88,-0.96 9,-1.04c4.13,-0.08 9.08,-0.07 11,0.03c1.92,0.1 4.63,0.33 6,0.51c1.38,0.19 3.51,0.38 4.75,0.42c1.42,0.05 2.62,1 3.25,2.58c0.55,1.38 1.45,2.5 2,2.5c0.55,0 1.23,-0.45 1.5,-1c0.27,-0.55 0.95,-1 1.5,-1c0.55,0 1.67,0.68 2.5,1.5c0.87,0.87 3.28,1.49 5.75,1.48c2.34,-0.01 6.61,0.21 9.5,0.5c2.89,0.29 5.59,0.54 6,0.56c0.41,0.02 -0.15,0.69 -1.25,1.49c-1.1,0.8 -1.64,1.8 -1.19,2.22c0.44,0.42 1.12,0.27 1.5,-0.33c0.38,-0.6 2.38,-1.16 4.44,-1.25c2.88,-0.12 4.1,0.37 5.26,2.1c0.83,1.24 1.48,1.8 1.46,1.25c-0.03,-0.55 0.64,-0.44 1.49,0.25c1.07,0.86 2.01,0.94 3.04,0.25c0.83,-0.55 1.27,-1.68 1,-2.5c-0.27,-0.82 -0.05,-1.72 0.5,-2c0.55,-0.28 1.7,0.06 2.54,0.75c1.24,1 1.54,1 1.5,0c-0.03,-0.81 0.84,-1.07 2.46,-0.75c1.38,0.28 2.5,0.05 2.5,-0.5c0,-0.55 1.69,-1.69 3.75,-2.52c2.06,-0.84 4.99,-1.51 6.5,-1.5c1.51,0.01 2.75,-0.43 2.75,-0.98c0,-0.55 1.69,-1.02 3.75,-1.04c2.22,-0.03 4.26,0.59 5,1.5c1.05,1.3 0.86,1.62 -1.25,2.04c-1.37,0.28 -2.95,0.28 -3.5,0c-0.55,-0.28 -1,0.4 -1,1.5c0,1.62 0.67,2 3.5,2c2.22,0 3.68,0.55 4,1.5c0.33,1 1.83,1.5 4.5,1.5c2.2,0 4.23,-0.45 4.5,-1c0.27,-0.55 2.08,-1 4,-1c1.92,0 3.84,0.6 4.25,1.33c0.41,0.73 1.54,1.63 2.5,2c0.96,0.37 1.98,0.22 2.25,-0.33c0.27,-0.55 1.85,-1 3.5,-1c1.65,0 3.34,-0.51 3.75,-1.13c0.45,-0.67 2.16,-0.91 4.25,-0.58c1.92,0.3 4.85,0.88 6.5,1.28c1.65,0.4 3.22,1.14 3.5,1.65c0.29,0.53 2.3,0.36 4.78,-0.4c3.58,-1.1 4.35,-1.8 4.75,-4.32c0.26,-1.65 1.04,-3.53 1.72,-4.18c0.69,-0.65 3.46,-1.32 6.17,-1.5c3.32,-0.21 5.03,0.09 5.25,0.93c0.18,0.69 1.68,1.25 3.33,1.25c2,0 3,-0.5 3,-1.5c0,-0.82 0.67,-1.5 1.5,-1.5c0.83,0 1.66,0.56 1.86,1.25c0.24,0.86 1.42,0.48 3.75,-1.22c2.85,-2.07 4.52,-2.47 10.39,-2.46c6.24,0.01 7.33,0.31 10,2.76c1.78,1.63 3.61,2.5 4.5,2.14c0.83,-0.34 3.64,-0.92 6.25,-1.29c3.89,-0.56 4.66,-1 4.25,-2.43c-0.4,-1.39 0.12,-1.75 2.5,-1.75c1.67,0 2.78,0.44 2.5,1c-0.3,0.59 0.22,0.72 1.25,0.32c0.96,-0.37 2.07,-1.16 2.46,-1.75c0.43,-0.64 3.23,-0.93 7,-0.71c3.46,0.2 10,0.42 14.54,0.5c4.54,0.08 8.25,0.48 8.25,0.89c0,0.41 2.25,0.64 5,0.5c2.75,-0.14 5,-0.59 5,-1c0,-0.41 0.67,-0.75 1.5,-0.75c0.83,0 1.72,1.01 2,2.25c0.42,1.87 0.67,2 1.48,0.75c0.54,-0.82 1,-1.05 1.02,-0.5c0.02,0.55 0.36,0.48 0.77,-0.16c0.4,-0.64 2.98,-1.29 5.73,-1.44c2.75,-0.16 5.56,0.03 6.25,0.41c0.69,0.38 1.92,0.47 2.75,0.19c0.83,-0.28 2.29,-0.1 3.25,0.39c0.96,0.49 5.25,2.63 9.52,4.75c4.27,2.12 7.76,4.2 7.75,4.61c-0.01,0.41 -1.14,0.75 -2.52,0.75c-1.37,0 -3.85,0.9 -5.5,2c-1.65,1.1 -3.67,1.78 -4.5,1.5c-0.83,-0.28 -1.48,-1.29 -1.46,-2.25c0.03,-1.4 -0.35,-1.26 -1.97,0.75c-1.11,1.38 -2.09,2.05 -2.19,1.5c-0.1,-0.55 -0.23,-1.86 -0.28,-2.91c-0.06,-1.17 -1.17,-2.24 -2.85,-2.75c-2.3,-0.7 -3.18,-0.39 -5.37,1.91c-2.02,2.12 -2.48,3.38 -2,5.5c0.52,2.29 0.28,2.75 -1.38,2.75c-1.17,0 -2.1,0.75 -2.25,1.81c-0.17,1.25 0.3,1.71 1.5,1.5c1.03,-0.18 1.75,0.31 1.75,1.19c0,0.82 -0.79,1.45 -1.75,1.38c-0.96,-0.06 -2.54,-0.06 -3.5,0c-1.67,0.11 -1.67,0.21 0,2.01c1.65,1.79 1.97,1.8 5.75,0.29c2.2,-0.88 4.34,-2.18 4.75,-2.89c0.41,-0.71 1.42,-1.29 2.25,-1.29c0.83,0 1.5,-0.45 1.5,-1c0,-0.55 1.13,-1 2.5,-1c1.38,0 2.5,-0.34 2.5,-0.75c0,-0.41 3.26,-0.67 7.25,-0.58c3.99,0.1 9.84,0.77 13.01,1.5c3.26,0.75 5.76,1.87 5.75,2.58c-0.01,0.69 -0.91,1.47 -2.01,1.75c-1.38,0.35 -1.82,1.04 -1.41,2.25c0.38,1.12 0.29,1.31 -0.25,0.54c-0.66,-0.94 -1.94,-0.93 -5.84,0.06c-2.75,0.7 -6.58,2.24 -8.5,3.43c-1.92,1.19 -4.74,2.17 -6.25,2.19c-1.51,0.02 -2.97,0.48 -3.25,1.03c-0.28,0.55 0.63,1 2,1c1.38,0 3.51,0.52 4.75,1.15c1.24,0.63 2.47,1.53 2.75,2c0.28,0.47 1.96,0.4 3.75,-0.15c1.79,-0.55 3.14,-1.57 3,-2.25c-0.14,-0.69 0.42,-1.12 1.25,-0.96c0.83,0.16 2.06,-0.4 2.75,-1.25c0.82,-1.01 1.92,-1.28 3.22,-0.79c1.32,0.5 2.56,0.18 3.75,-0.99c1.69,-1.66 1.9,-1.63 4.28,0.47c1.68,1.48 3.65,2.16 6,2.07c1.92,-0.08 3.95,-0.76 4.5,-1.5c0.55,-0.74 2.58,-1.84 4.5,-2.44c1.92,-0.6 5.53,-0.86 8,-0.59c2.47,0.28 5.51,-0.01 6.75,-0.63c1.74,-0.88 2.08,-1.62 1.5,-3.3c-0.73,-2.1 -0.59,-2.15 4.25,-1.4c2.75,0.43 6.13,0.95 7.5,1.15c1.38,0.21 5.31,0.95 8.73,1.65c3.43,0.7 6.24,0.93 6.25,0.52c0.01,-0.41 0.92,-0.75 2.02,-0.75c1.1,0 2.34,0.6 2.75,1.33c0.41,0.73 1.54,1.63 2.5,2c0.96,0.37 3.89,-0.11 6.5,-1.08c2.61,-0.96 5.65,-2.28 6.75,-2.92c1.91,-1.12 1.93,-1.26 0.25,-3.25c-0.96,-1.15 -1.53,-2.53 -1.25,-3.08c0.28,-0.55 1.74,-1.01 3.25,-1.03c1.51,-0.02 3.08,0.32 3.47,0.75c0.4,0.43 0.28,1.57 -0.25,2.53c-0.79,1.43 -0.56,1.77 1.28,1.85c1.24,0.06 3.83,0.06 5.75,0.01c1.92,-0.05 4.4,-0.21 5.5,-0.35c1.1,-0.14 2.22,-0.6 2.5,-1.01c0.28,-0.41 1.63,-0.86 3,-1c1.38,-0.14 2.64,0.2 2.81,0.75c0.17,0.55 -0.59,1.22 -1.69,1.5c-1.1,0.28 -3.15,1.51 -4.56,2.75c-1.41,1.24 -2.56,2.93 -2.56,3.75c0,0.82 -0.45,1.27 -1,1c-0.55,-0.27 -1,-0.05 -1,0.5c0,0.55 -1.12,0.77 -2.5,0.5c-1.37,-0.27 -2.5,-0.05 -2.5,0.5c0,0.55 -0.98,1.11 -2.17,1.25c-1.19,0.14 -2.32,0.81 -2.5,1.5c-0.24,0.93 0.18,0.99 1.67,0.25c1.1,-0.55 3.46,-0.89 5.25,-0.75c3.14,0.24 3.26,0.42 3.5,5c0.21,4 0.57,4.75 2.25,4.75c1.1,0 2.18,0.34 2.41,0.75c0.22,0.41 3.49,0.64 7.25,0.51c3.76,-0.13 7.85,-0.47 9.09,-0.75c1.67,-0.38 2.25,-0.06 2.23,1.24c-0.01,0.96 -0.44,2.43 -0.96,3.25c-0.65,1.03 -2.9,1.56 -7.23,1.69c-3.46,0.11 -7.07,0.22 -8.04,0.25c-0.96,0.03 -2.09,0.95 -2.5,2.05c-0.41,1.09 -1.87,2.24 -3.25,2.54c-1.51,0.33 -2.79,0.04 -3.23,-0.74c-0.43,-0.75 -0.01,-1.82 1,-2.56c0.95,-0.7 2.29,-1.26 2.98,-1.25c0.69,0.01 1.03,-0.43 0.75,-0.98c-0.28,-0.55 -1.73,-0.71 -3.25,-0.35c-1.51,0.36 -3.09,1.26 -3.5,2c-0.41,0.74 -1.54,1.33 -2.5,1.3c-0.96,-0.02 -2.42,0.67 -3.25,1.54c-0.83,0.87 -2.06,1.57 -2.75,1.54c-0.69,-0.02 -1.25,0.63 -1.25,1.46c0,0.82 -0.56,1.51 -1.25,1.53c-0.76,0.02 -0.58,0.51 0.46,1.25c0.94,0.67 1.73,1.67 1.75,2.22c0.02,0.55 1.3,1 2.83,1c1.54,0 4.01,-0.79 5.5,-1.75c1.49,-0.96 3.61,-1.75 4.71,-1.75c1.1,0 3.13,-0.45 4.5,-1c1.66,-0.66 4.77,-0.67 9.25,-0.01c3.71,0.54 7.04,1.56 7.39,2.25c0.35,0.69 1.14,0.92 1.75,0.51c0.61,-0.41 0.81,-1.31 0.45,-2c-0.37,-0.69 -0.25,-0.92 0.25,-0.51c0.5,0.41 1.54,0.18 2.31,-0.5c0.84,-0.75 4.31,-1.24 8.7,-1.24c4.24,0 7.84,0.5 8.6,1.19c0.72,0.65 1.86,0.99 2.55,0.75c0.69,-0.24 1.81,-0.03 2.5,0.47c0.69,0.5 2.15,1 3.25,1.12c1.1,0.12 3.01,0.16 4.25,0.1c1.54,-0.08 2.25,-0.74 2.25,-2.12c0,-1.1 0.45,-2 1,-2c0.55,0 1.56,0.97 2.25,2.16c1.08,1.87 1.82,2.07 5.5,1.5c3.3,-0.51 4.36,-0.32 4.75,0.84c0.28,0.82 0.84,1.51 1.25,1.52c0.41,0.01 1.05,-1.22 1.41,-2.75c0.57,-2.39 1.4,-2.94 6,-3.95c2.94,-0.65 6.69,-0.96 8.34,-0.69c1.65,0.27 4.7,0.57 6.79,0.68c2.12,0.11 4.18,0.85 4.69,1.69c0.52,0.86 0.53,1.92 0.03,2.5c-0.55,0.62 0.23,1.47 2.06,2.25c1.61,0.69 2.94,1.7 2.94,2.25c0,0.55 -0.64,1.68 -1.43,2.5c-0.79,0.82 -2.36,1.5 -3.5,1.5c-1.14,0 -2.97,-0.9 -4.07,-2c-1.1,-1.1 -2.17,-1.66 -2.38,-1.25c-0.21,0.41 -1.9,1.14 -3.75,1.62c-1.85,0.48 -5.17,1.01 -7.37,1.19c-2.38,0.19 -4.3,0.95 -4.75,1.88c-0.41,0.86 -1.98,1.55 -3.5,1.54c-2.22,-0.01 -2.51,0.23 -1.47,1.25c1.02,1.02 1.67,1.02 3.25,0.02c1.09,-0.69 3.32,-1.25 4.97,-1.25c1.65,0 3,0.45 3,1c0,0.55 1.13,0.77 2.5,0.5c1.38,-0.27 3.06,-1.1 3.75,-1.83c0.99,-1.05 2.39,-1.11 6.75,-0.26c3.03,0.59 8.42,1.07 12,1.08c5.4,0.01 6.88,0.4 8.75,2.26c2.08,2.08 2.32,2.12 3.17,0.5c0.52,-0.99 1.28,-1.36 1.75,-0.86c0.45,0.49 0.26,1.05 -0.42,1.25c-0.69,0.2 -1.25,1.04 -1.25,1.86c0,0.82 0.67,1.5 1.5,1.5c0.83,0 1.72,-0.45 2,-1c0.28,-0.55 1.63,-1 3,-1c2,0 2.5,0.5 2.5,2.5c0,1.48 -0.92,3.12 -2.25,4.01c-1.24,0.83 -3.26,1.5 -4.5,1.5c-1.24,0 -2.25,0.44 -2.25,0.99c0,0.55 -0.67,1 -1.5,1c-0.83,0 -1.5,0.68 -1.5,1.5c0,0.82 -1.24,1.91 -2.75,2.42c-2.35,0.79 -1.88,0.95 3.25,1.13c3.3,0.11 7.13,0.4 8.5,0.63c1.38,0.23 4.97,0.55 8,0.7c3.03,0.15 4.71,0.13 3.75,-0.05c-0.96,-0.18 -1.53,-0.78 -1.25,-1.33c0.28,-0.55 1.4,-1 2.5,-1c1.11,0 2,0.67 2,1.5c0,0.82 0.56,1.66 1.25,1.85c0.69,0.19 2.24,-0.15 3.45,-0.75c1.65,-0.82 2.53,-0.79 3.5,0.13c0.86,0.81 2.45,0.98 4.67,0.5c1.85,-0.4 3.54,-1.07 3.75,-1.48c0.21,-0.41 2.18,-0.41 4.39,0c3.45,0.64 4.01,0.5 4,-1c-0.01,-1.45 0.71,-1.69 4.23,-1.39c2.34,0.2 4.92,0.63 5.75,0.95c0.83,0.33 2.17,0.67 3,0.76c0.83,0.09 2.4,0.12 5.5,-0.04l-2,-1.39c-1.97,-1.36 -1.96,-1.41 0.5,-2.62c2.03,-1 2.64,-0.97 3.23,0.12c0.4,0.74 0.74,1.69 0.75,2.1c0.01,0.41 1.82,0.75 4.02,0.75c2.2,0 4.22,-0.45 4.5,-1c0.28,-0.55 0.95,-0.77 1.5,-0.5c0.55,0.27 0.73,1.29 0.41,2.25c-0.5,1.48 -0.35,1.56 1,0.5c0.88,-0.69 2.16,-1.18 2.84,-1.09c0.69,0.09 2.49,-0.36 4,-1c1.51,-0.64 4.33,-1.16 6.25,-1.16c1.92,0 3.5,-0.45 3.5,-1c0,-0.55 0.9,-1 2,-1c1.33,0 1.83,0.5 1.5,1.5c-0.4,1.19 0.33,1.45 3.53,1.25c2.3,-0.14 4.41,-0.9 4.91,-1.75c0.65,-1.1 1.38,-1.24 2.72,-0.54c1.01,0.53 3.41,1.02 5.34,1.09c1.92,0.07 5.75,0.2 8.5,0.3c2.75,0.09 7.25,-0.13 10,-0.5c4.08,-0.55 4.82,-0.42 4,0.67c-0.81,1.08 -0.34,1.18 2.5,0.54c1.92,-0.44 5.19,-0.74 7.25,-0.67c2.06,0.07 3.97,-0.33 4.25,-0.88c0.32,-0.65 2.53,-0.52 6.25,0.37c3.16,0.75 6.99,1.65 8.5,2c2.17,0.5 2.64,0.31 2.25,-0.87c-0.28,-0.82 0.06,-1.5 0.75,-1.5c0.69,0 1.75,0.79 2.35,1.75c0.86,1.37 2.17,1.68 6,1.41c2.69,-0.19 6.47,-0.32 8.4,-0.3c2.57,0.04 3.1,-0.2 2,-0.89c-1.33,-0.83 -1.33,-0.94 0,-0.91c1.23,0.02 1.27,-0.25 0.25,-1.52c-0.69,-0.85 -0.91,-2.05 -0.5,-2.67c0.45,-0.67 1.97,-0.88 3.75,-0.51c2.03,0.42 3.48,0.13 4.5,-0.91c0.85,-0.86 2.8,-1.4 4.5,-1.24c2.05,0.19 2.9,0.76 2.68,1.78c-0.17,0.82 0.5,2.06 1.5,2.74c1,0.68 1.47,1.58 1.05,2c-0.42,0.42 -1.88,0.2 -3.25,-0.49c-2.29,-1.15 -2.53,-1.05 -2.99,1.25c-0.38,1.9 -0.98,2.38 -2.5,2c-1.1,-0.27 -2,-0.95 -2,-1.5c0,-0.55 -0.56,-1.02 -1.25,-1.04c-0.69,-0.02 -1.92,0.67 -2.75,1.54c-0.83,0.87 -1.05,1.6 -0.5,1.61c0.55,0.01 2.58,0.24 4.5,0.5c1.92,0.26 3.61,0.68 3.75,0.93c0.14,0.25 1.15,-0.44 2.25,-1.54c1.14,-1.14 2.76,-1.77 3.75,-1.47c0.96,0.29 1.97,0.02 2.25,-0.6c0.37,-0.83 1.1,-0.83 2.75,-0.03c1.37,0.67 2.05,0.71 1.75,0.1c-0.28,-0.55 0.17,-1 1,-1c0.83,0 1.61,0.52 1.75,1.15c0.16,0.76 1.27,0.91 3.25,0.44c2.39,-0.57 2.7,-0.91 1.5,-1.67c-1.28,-0.82 -1.21,-1.13 0.5,-2.15c1.1,-0.66 2.79,-1.32 3.75,-1.48c0.96,-0.16 1.75,0.16 1.75,0.71c0,0.55 -0.67,1 -1.5,1c-0.83,0 -1.52,0.34 -1.54,0.75c-0.02,0.41 0.54,1.33 1.25,2.03c0.71,0.71 2.64,1.17 4.29,1.04c1.65,-0.13 3.6,-0.71 4.33,-1.28c0.94,-0.74 1.52,-0.66 2,0.26c0.37,0.71 1.91,1.39 3.42,1.5c1.51,0.11 2.74,0.43 2.72,0.7c-0.02,0.27 1.11,1.06 2.5,1.75c1.39,0.69 2.3,0.8 2.03,0.25c-0.28,-0.55 0.51,-1.63 1.75,-2.4c1.24,-0.77 3.38,-2.41 4.75,-3.65c2.09,-1.88 3.2,-2.14 6.75,-1.6c2.44,0.37 4.46,1.28 4.75,2.15c0.28,0.82 0.5,1.95 0.5,2.5c0,0.55 -0.56,0.95 -1.25,0.88c-0.69,-0.07 -2.04,-0.07 -3,0c-0.96,0.07 -1.75,0.46 -1.75,0.87c0,0.41 1.58,0.75 3.5,0.75c1.92,0 3.48,-0.45 3.45,-1c-0.02,-0.55 0.67,-0.32 1.55,0.5c1.42,1.34 1.58,1.31 1.54,-0.25c-0.03,-1.35 0.47,-1.6 2.21,-1.09c1.24,0.36 2.92,1.31 3.75,2.11c1.32,1.28 1.67,1.23 2.86,-0.41c0.93,-1.27 1.49,-1.47 1.75,-0.61c0.21,0.69 1.62,1.22 3.14,1.18c2.44,-0.06 2.52,-0.17 0.75,-0.93c-1.35,-0.58 -1.51,-0.89 -0.5,-0.95c0.83,-0.05 2.4,0.58 3.5,1.4c1.1,0.82 2.79,1.5 3.75,1.52c0.96,0.02 1.86,-0.45 2,-1.03c0.14,-0.61 2.7,-1.04 6,-1c4.82,0.05 5.76,-0.22 5.78,-1.69c0.03,-1.65 0.1,-1.65 1.25,-0.04c0.67,0.94 2.34,1.72 3.72,1.73c1.38,0.01 3.17,-0.43 4,-0.99c1.13,-0.77 0.82,-0.88 -1.25,-0.48c-1.71,0.33 -2.93,0.06 -3.23,-0.72c-0.26,-0.69 -1.5,-1.6 -5.02,-2.78l2.5,-2.02c1.38,-1.11 3.06,-2.01 3.75,-1.98c0.69,0.02 1.24,-0.52 1.23,-1.21c-0.01,-0.91 1,-1.05 3.75,-0.5c2.07,0.41 4.22,1.2 4.77,1.75c0.67,0.67 0.57,1.41 -0.29,2.25c-1.04,1 -1.88,0.9 -4.25,-0.5c-1.85,-1.09 -2.75,-1.28 -2.41,-0.5c0.31,0.7 -0.46,1.62 -1.75,2.09c-2.14,0.79 -2.04,0.92 1.52,2c2.1,0.64 3.45,1.55 3,2.02c-0.46,0.49 0.72,0.55 2.69,0.13c1.92,-0.4 3.84,-0.91 4.25,-1.12c0.41,-0.21 0.75,-1.06 0.75,-1.88c0,-0.82 1.01,-1.77 2.25,-2.09c2.24,-0.59 2.24,-0.59 -0.25,-1.3c-1.37,-0.39 -2.5,-1.36 -2.5,-2.16c0,-0.8 1.8,-2.08 4,-2.85c2.2,-0.77 7.78,-1.45 12.39,-1.5c6.93,-0.09 8.58,0.2 9.5,1.62c0.85,1.32 0.72,2.38 -2.19,7.27l5.65,0.3c3.11,0.16 5.99,0.84 6.4,1.5c0.56,0.9 1,0.82 1.75,-0.3c0.89,-1.33 1.11,-1.33 1.98,0c0.54,0.82 0.99,1.05 1,0.5c0.01,-0.55 1.14,-2.24 2.52,-3.75c1.38,-1.51 2.11,-2.86 1.62,-3c-0.48,-0.14 -1.16,-1.71 -1.5,-3.5c-0.44,-2.3 -0.26,-3.2 0.63,-3.09c0.69,0.09 2.15,-0.22 3.25,-0.68c1.32,-0.56 2.08,-0.44 2.25,0.34c0.17,0.81 0.64,0.87 1.5,0.18c0.69,-0.55 2.04,-0.78 3,-0.5c0.96,0.28 1.75,1.18 1.75,2c0,0.82 0.67,1.5 1.5,1.5c0.83,0 1.5,-0.45 1.5,-1c0,-0.55 1.35,-1 3,-1c1.65,0 3.21,-0.34 3.47,-0.75c0.26,-0.41 -0.18,-1.65 -0.97,-2.75c-0.79,-1.1 -1.45,-2.34 -1.47,-2.75c-0.02,-0.41 0.76,-0.51 1.72,-0.23c1.15,0.34 2.01,-0.18 2.5,-1.5c0.41,-1.11 1.2,-1.8 1.75,-1.52c0.55,0.27 0.66,1.05 0.25,1.73c-0.53,0.87 -0.24,1.02 1,0.5c0.96,-0.4 2.88,-0.73 4.25,-0.73c1.67,0 2.67,-0.67 3,-2c0.29,-1.17 1.33,-2 2.5,-2c1.1,0 2,0.45 2,1c0,0.55 -0.56,1 -1.25,0.99c-0.69,0 -0.24,0.67 1,1.5c1.24,0.83 3.6,1.4 5.25,1.26c1.65,-0.14 3,-0.59 3,-1c0,-0.41 1.46,-0.75 3.25,-0.75c1.79,0 4.83,0.44 6.75,0.97c2.26,0.62 3.94,0.62 4.75,0c0.69,-0.53 1,-1.76 0.69,-2.72c-0.38,-1.19 0.42,-2.47 2.5,-4c1.89,-1.39 3.73,-2 4.81,-1.59c0.96,0.36 2.99,0.81 4.5,1c1.51,0.19 3.46,-0.33 4.32,-1.16c0.86,-0.82 2.1,-1.46 2.75,-1.42c0.82,0.05 0.79,0.21 -0.07,0.5c-0.69,0.23 -1.25,0.98 -1.24,1.67c0,0.84 1.25,1.14 3.75,0.92c3.14,-0.28 4.19,0.17 6.49,2.75c1.51,1.69 3.42,3.08 4.25,3.08c0.83,0 1.5,-0.45 1.5,-1c0,-0.55 0.56,-1 1.25,-0.99c0.69,0 3.05,-0.9 5.25,-2.02c2.2,-1.12 4,-2.58 4,-3.26c0,-0.68 -1.8,-1.49 -4,-1.8c-2.77,-0.39 -3.54,-0.81 -2.5,-1.36c0.83,-0.43 2.29,-0.52 3.25,-0.18c1.08,0.38 1.94,0.03 2.25,-0.89c0.28,-0.82 1.63,-1.5 3,-1.5c1.38,0 2.5,0.45 2.5,1c0,0.55 0.9,0.77 2,0.5c1.1,-0.27 2,-0.05 2,0.5c0,0.55 -1.01,2.01 -2.25,3.25c-1.24,1.24 -2.36,3.04 -2.5,4c-0.2,1.43 0.53,1.75 4,1.77c2.66,0.01 6.03,-0.92 13.75,-5.02l7.5,3.85l4.5,-2.45c2.47,-1.35 5.29,-2.44 6.25,-2.42c1.23,0.02 1.57,-0.5 1.16,-1.73c-0.36,-1.07 0.03,-2.04 1,-2.5c0.87,-0.41 1.59,-1.09 1.58,-1.5c0,-0.41 -1.58,-0.64 -3.5,-0.5c-2.81,0.2 -3.46,-0.09 -3.32,-1.5c0.09,-0.96 -0.13,-2.76 -0.5,-4c-0.62,-2.07 -0.35,-2.25 3.33,-2.25c3.49,0 4,0.29 3.97,2.25c-0.02,1.24 0.77,3.18 1.75,4.32c0.98,1.14 2.68,2.39 3.78,2.78c1.1,0.39 3.46,0.47 5.25,0.18c1.99,-0.32 3.25,-1.11 3.25,-2.03c0,-0.93 0.94,-1.5 2.5,-1.5c2.27,0 2.48,0.35 2.25,3.75c-0.19,2.9 0.09,3.67 1.25,3.39c0.83,-0.2 2.51,-0.31 3.75,-0.25c1.76,0.08 2.25,-0.44 2.25,-2.39c0,-1.53 0.68,-2.69 1.75,-2.98c0.96,-0.26 4,-0.51 6.75,-0.54c2.75,-0.03 7.39,0.3 10.32,0.73c4.48,0.66 5.58,1.26 7,3.79c0.93,1.65 1.8,3.11 1.93,3.25c0.14,0.14 1.49,-0.48 3,-1.37c1.9,-1.12 3.91,-1.43 6.5,-1c2.06,0.34 4.54,1.52 5.5,2.63c0.96,1.11 2.42,2.01 3.25,2.01c0.83,0 2.29,-0.9 3.25,-2.01c0.96,-1.11 1.41,-2.02 1,-2.02c-0.41,-0.01 1.15,-1.02 3.48,-2.25c2.32,-1.23 4.57,-1.9 5,-1.5c0.43,0.41 0.44,1.42 0.02,2.25c-0.42,0.85 -2.16,1.54 -7.25,1.67l3,1.08c1.65,0.6 3.52,1.8 4.16,2.67c0.64,0.87 0.98,1.93 0.75,2.34c-0.23,0.41 -0.07,0.74 0.34,0.72c0.41,-0.01 1.42,-0.72 2.25,-1.57c1.31,-1.35 2.2,-1.38 7,-0.24c3.03,0.72 6.51,1.21 7.75,1.07c1.24,-0.13 2.25,0.21 2.25,0.76c0,0.55 -1.01,1.12 -2.25,1.26c-1.24,0.14 2.93,0.2 9.25,0.12c6.32,-0.07 12.4,-0.39 13.5,-0.7c1.1,-0.31 6.72,-0.84 12.5,-1.18c5.78,-0.34 11.29,-0.81 12.25,-1.06c0.96,-0.24 1.97,0.01 2.25,0.56c0.3,0.59 1.21,0.37 2.25,-0.54c1.58,-1.39 2.12,-1.39 5.5,0c2.06,0.85 3.59,2.11 3.39,2.79c-0.2,0.69 -0.98,1.17 -1.75,1.06c-0.77,-0.1 -2.29,-0.46 -3.39,-0.78c-1.48,-0.44 -2.33,0.06 -3.25,1.94c-1.1,2.22 -1.04,2.53 0.5,2.52c0.96,-0.01 4,-0.62 6.75,-1.36c2.75,-0.74 4.92,-1.74 4.83,-2.23c-0.09,-0.49 1.93,-1.04 4.5,-1.22c2.57,-0.18 5.46,-0.74 6.42,-1.25c0.96,-0.51 2.65,-0.7 3.75,-0.42c1.12,0.28 2.33,-0.1 2.75,-0.87c0.41,-0.75 3.11,-2.1 6,-3c3.32,-1.03 5.43,-1.26 5.75,-0.63c0.28,0.55 1.29,0.99 2.25,0.97c0.96,-0.02 3.78,0.85 6.25,1.93c4.38,1.91 4.43,1.98 1.75,2.53c-1.51,0.31 -2.64,1.13 -2.5,1.82c0.14,0.71 -0.93,1.36 -2.5,1.5c-1.67,0.15 -2.75,0.84 -2.75,1.75c0,1 0.67,1.33 2,1c1.23,-0.31 2.19,0.08 2.5,1c0.39,1.16 2.22,1.5 8,1.5c5.78,0 7.61,-0.34 8,-1.5c0.44,-1.33 0.83,-1.33 3.5,0c1.65,0.82 3.56,1.16 4.25,0.75c0.69,-0.41 3.28,-0.87 5.75,-1.03c2.47,-0.15 6.19,-0.27 8.25,-0.25c2.06,0.02 4.09,-0.48 4.5,-1.11c0.43,-0.65 0,-1.5 -1,-2c-0.96,-0.48 -1.75,-1.88 -1.74,-3.12c0,-1.67 0.58,-2.24 2.25,-2.22c1.23,0.02 4.04,-0.28 6.24,-0.66c2.55,-0.44 4.51,-0.27 5.41,0.47c0.89,0.73 1.55,0.79 1.77,0.16c0.2,-0.55 1.36,-0.83 2.59,-0.63c1.23,0.2 3.35,-0.32 4.73,-1.15c1.89,-1.15 3.11,-1.27 5,-0.5c1.38,0.56 1.94,1.19 1.25,1.4c-0.69,0.21 -1.25,0.84 -1.25,1.39c0,0.55 0.68,1 1.5,1c0.82,0 1.5,-0.68 1.5,-1.5c0,-0.82 0.45,-1.5 1,-1.5c0.55,0 1.34,0.71 1.75,1.59c0.47,0.99 0.19,1.93 -0.75,2.5c-1.33,0.81 -1.33,1.02 0,1.88c0.97,0.62 1.59,0.62 1.75,0c0.14,-0.53 1.38,-1.42 2.75,-1.97c1.38,-0.55 3.18,-0.77 4,-0.5c0.82,0.27 1.5,1.4 1.5,2.5c0,1.79 0.67,2 6.5,2c3.57,0 6.72,-0.45 7,-1c0.28,-0.55 -0.06,-1.05 -0.75,-1.12c-0.69,-0.07 -1.81,-0.07 -2.5,0c-0.69,0.07 -1.03,-0.33 -0.75,-0.88c0.28,-0.55 1.4,-1 2.5,-1c1.1,0 2.22,0.45 2.5,1c0.28,0.55 1.06,0.84 1.75,0.65c0.69,-0.19 2.49,0.03 6.75,1.35l-1.53,-2.75c-0.84,-1.51 -2.76,-3.33 -4.25,-4.03c-1.49,-0.7 -2.8,-1.27 -2.9,-1.25c-0.1,0.02 -0.89,0.71 -1.75,1.53c-0.86,0.83 -3.37,1.73 -5.57,2c-2.33,0.29 -4,0.08 -4,-0.5c0,-0.55 1.01,-1.11 2.25,-1.25c1.68,-0.19 2.19,-0.82 2,-2.5c-0.24,-2.18 0.05,-2.26 9,-2.43c5.09,-0.1 9.99,-0.21 10.89,-0.25c0.9,-0.04 1.47,-0.41 1.25,-0.82c-0.22,-0.41 0.11,-1.09 0.72,-1.5c0.61,-0.41 1.5,-0.07 1.98,0.75c0.74,1.27 0.88,1.23 0.89,-0.25c0.01,-1.22 0.54,-1.57 1.77,-1.15c0.96,0.33 2.2,0.71 2.75,0.85c0.55,0.14 2.13,0.7 3.5,1.24c1.67,0.66 3.88,0.62 6.69,-0.1c2.3,-0.6 4.1,-1.53 4,-2.08c-0.1,-0.55 0.71,-0.94 1.81,-0.86c1.1,0.08 3.35,0.36 5,0.62c1.65,0.27 2.32,0.27 1.5,0.02c-0.82,-0.26 -1.95,-0.88 -2.5,-1.39c-0.55,-0.51 -1.79,-0.91 -2.75,-0.9c-1.09,0.01 -1.75,-0.74 -1.75,-1.98c0,-1.1 0.45,-2 1,-2c0.55,0 1,-0.9 1,-2c0,-1.11 0.67,-2 1.5,-2c0.82,0 1.61,0.98 1.75,2.17c0.14,1.19 0.81,2.32 1.5,2.5c0.69,0.18 1.25,-0.35 1.25,-1.17c0,-0.82 1.01,-2.16 2.25,-2.96c1.67,-1.08 2.77,-1.19 4.25,-0.41c1.1,0.57 2.56,0.78 3.25,0.46c0.69,-0.32 1.36,-0.07 1.5,0.56c0.19,0.87 0.8,0.87 2.5,0c1.35,-0.69 4.36,-0.92 7.5,-0.58c2.89,0.31 7.72,1.05 10.75,1.63c3.03,0.58 7.3,1.13 9.5,1.23c2.2,0.09 4.9,0.59 6,1.1c1.29,0.6 1.77,0.58 1.35,-0.05c-0.38,-0.57 0.98,-1.08 3.25,-1.23c2.14,-0.14 3.9,0.2 3.9,0.75c0,0.63 0.84,0.58 2.25,-0.13c1.81,-0.91 3.13,-0.73 6.75,0.92c2.47,1.12 7.2,2.34 10.5,2.71c5.26,0.59 6.31,0.41 8.5,-1.48c1.64,-1.41 2.07,-2.3 1.25,-2.59c-0.69,-0.24 -1.26,-1 -1.27,-1.69c-0.01,-0.95 0.28,-0.98 1.25,-0.09c0.7,0.64 2.05,0.98 3.02,0.75c0.96,-0.23 1.75,-1.09 1.75,-1.91c0,-0.82 0.45,-1.5 1,-1.5c0.55,0 1.22,0.68 1.5,1.5c0.28,0.82 1.4,1.5 2.5,1.5c1.1,0 2.15,0.56 2.32,1.25c0.18,0.69 1.07,0.02 2,-1.5c1.03,-1.68 2.55,-2.75 3.93,-2.76c1.24,0 3.49,-0.68 5,-1.5c1.51,-0.82 3.2,-1.27 3.75,-0.99c0.55,0.27 2.36,-0.29 4.01,-1.25c2.58,-1.5 3.63,-1.58 7.25,-0.59c3.8,1.04 4.65,0.93 8.24,-1.1c2.38,-1.34 5.22,-2.13 7,-1.94c1.65,0.18 3.56,0.56 4.25,0.85c0.69,0.29 1.03,1.2 0.75,2.03c-0.32,0.95 0.33,1.73 1.75,2.12c1.24,0.34 3.15,0.31 6.25,-0.76l-2,-1.45c-1.1,-0.8 -2.56,-1.44 -3.25,-1.43c-0.69,0.01 -1.24,-0.32 -1.23,-0.73c0.01,-0.41 0.4,-1.43 0.88,-2.25c0.73,-1.27 1.19,-1.16 2.98,0.75c1.17,1.24 2.57,2.25 3.12,2.25c0.55,0 0.66,0.53 0.25,1.17c-0.56,0.87 0.61,1 4.5,0.5c4.01,-0.51 5.6,-0.31 6.75,0.83c0.82,0.82 2.29,1.45 3.25,1.38c1.67,-0.11 1.67,-0.13 0,-0.5c-1.18,-0.26 -1.59,-1.03 -1.25,-2.38c0.42,-1.67 0.16,-1.87 -1.56,-1.25c-1.61,0.59 -2.21,0.26 -2.75,-1.51c-0.38,-1.24 -1.37,-2.45 -2.19,-2.68c-0.82,-0.23 0.75,-0.29 3.5,-0.12c2.75,0.16 5.11,0.81 5.25,1.43c0.14,0.62 1.04,1.12 2,1.11c1.17,-0.01 1.35,-0.26 0.56,-0.75c-0.79,-0.48 -0.28,-1.12 1.5,-1.87c1.48,-0.62 3.48,-1.41 4.44,-1.75c1.14,-0.4 1.54,-1.22 1.14,-2.37c-0.34,-0.96 -0.22,-2.03 0.25,-2.38c0.47,-0.35 1.87,-0.24 3.11,0.25c1.24,0.49 2.03,1.33 1.75,1.88c-0.28,0.55 -0.16,1.03 0.25,1.08c0.41,0.04 1.65,0.24 2.75,0.45c1.1,0.2 3.35,-0.29 5,-1.1c1.65,-0.81 3.11,-1.46 3.25,-1.45c0.14,0.01 0.25,0.7 0.25,1.52c0,0.82 1.35,2.18 3,3c1.65,0.82 3.03,2.29 3.07,3.25c0.05,1.4 0.3,1.29 1.25,-0.53c0.65,-1.25 1.52,-2.27 1.93,-2.25c0.41,0.02 0.74,2.84 0.73,6.28c-0.01,3.98 -0.33,5.71 -0.87,4.75c-0.74,-1.29 -0.95,-1.25 -1.48,0.25c-0.42,1.17 -0.13,1.75 0.87,1.75c1.32,0 1.5,8.39 1.5,139h-2500l0.04,-73.5l2.73,0.36c1.62,0.21 2.99,-0.2 3.37,-1c0.43,-0.91 1.08,-1.05 2,-0.42c0.75,0.52 3.76,0.97 6.7,1c2.94,0.03 5.52,-0.27 5.75,-0.69c0.23,-0.41 1.16,-0.19 2.07,0.5c0.91,0.69 3.42,1.25 5.58,1.25c2.34,0 4.7,0.71 5.85,1.75c1.06,0.96 2.37,1.75 2.92,1.75c0.55,0 1.23,-0.68 1.5,-1.5c0.39,-1.16 1.69,-1.4 5.75,-1.05c2.89,0.24 5.81,0.02 6.5,-0.5c0.82,-0.62 1.46,-0.52 1.88,0.3c0.47,0.94 0.81,0.88 1.39,-0.25c0.53,-1.04 1.18,-1.21 2.13,-0.54c0.75,0.53 2.26,0.98 3.36,1c1.1,0.02 2.79,-0.3 3.75,-0.71c0.96,-0.41 2.31,-0.34 3,0.17c0.69,0.51 4.74,1.07 9,1.25c4.26,0.18 7.76,0.55 7.77,0.83c0.01,0.27 2.15,0.13 4.75,-0.32c2.6,-0.45 5.78,-0.9 7.06,-1c1.28,-0.1 2.52,0.15 2.75,0.57c0.23,0.41 0.87,0.52 1.42,0.25c0.55,-0.27 1.79,-0.22 2.75,0.12c0.96,0.34 4.22,0.52 7.25,0.39c3.03,-0.12 6.51,0.27 7.75,0.88c2,0.98 2.19,0.88 1.75,-0.89c-0.47,-1.89 0,-2 8.25,-2.01c5.86,0 9.66,-0.5 11.5,-1.5c1.51,-0.82 3.2,-1.27 3.75,-0.99c0.55,0.27 1.14,-0.06 1.31,-0.75c0.23,-0.93 1.33,-0.76 4.25,0.64c2.17,1.04 5.4,2.05 7.19,2.25c2.47,0.27 3.49,-0.12 4.25,-1.64c0.9,-1.81 0.69,-1.98 -2.25,-1.82c-1.79,0.1 -4.26,-0.13 -5.5,-0.5c-1.24,-0.37 -2.25,-1.35 -2.25,-2.18c0,-1.22 -0.83,-1.36 -4.48,-0.75c-3.58,0.6 -4.73,0.42 -5.75,-0.89c-0.7,-0.9 -2.96,-2.14 -5.02,-2.75c-2.06,-0.61 -3.97,-1.56 -4.25,-2.11c-0.28,-0.55 0.06,-1.7 0.75,-2.54c0.69,-0.85 0.84,-1.52 0.33,-1.5c-0.5,0.02 -0.73,-0.19 -0.5,-0.47c0.23,-0.28 1.77,0.17 3.42,0.99c1.65,0.83 4.24,1.51 5.75,1.51c1.51,0 2.75,0.46 2.75,1.01c0,0.55 1.35,1 3,1c1.65,0 3,0.45 3,1c0,0.55 0.56,0.75 1.25,0.44c0.69,-0.31 1.93,0.16 2.75,1.04c0.82,0.88 2.06,1.58 2.75,1.56c0.69,-0.02 1.47,-0.72 1.75,-1.54c0.31,-0.92 -0.27,-1.69 -1.5,-2c-1.1,-0.27 -2,-1.18 -2,-2c0,-0.93 0.94,-1.5 2.5,-1.5c1.73,0 2.49,0.54 2.46,1.75c-0.02,0.96 0.67,2.43 1.54,3.25c0.87,0.82 1.57,2.29 1.54,3.25c-0.02,0.96 0.41,1.75 0.96,1.75c0.55,0 1,-0.9 1,-2c0,-1.1 0.45,-2 1,-2c0.55,0 1,-0.9 1,-2c0,-1.11 0.67,-2 1.5,-2c0.83,0 1.5,0.89 1.5,2c0,1.1 0.56,2.31 1.25,2.69c0.7,0.38 1.46,0.05 1.72,-0.75c0.26,-0.79 1.38,-2.21 2.5,-3.15c1.57,-1.32 2.49,-1.47 4.03,-0.66c1.1,0.58 2.56,0.79 3.25,0.46c0.69,-0.32 1.47,-0.14 1.75,0.41c0.33,0.67 1.17,0.67 2.5,0c1.34,-0.67 4.9,-0.66 10.75,0.04c4.81,0.57 9.65,1.31 10.75,1.64c1.1,0.33 3.8,0.74 6,0.91c2.2,0.17 5.35,0.49 7,0.71c1.65,0.22 3.9,0.05 5,-0.39c1.1,-0.44 5.04,-1.04 8.75,-1.35c5.89,-0.49 6.59,-0.75 5.5,-2.08c-0.69,-0.84 -1.03,-1.66 -0.75,-1.84c0.28,-0.17 2.53,-1.29 5,-2.48c3.36,-1.61 5.33,-1.97 7.77,-1.41c1.8,0.41 3.27,1.2 3.27,1.75c0,0.55 -0.58,1.58 -1.27,2.28c-1.03,1.04 -0.47,1.18 2.98,0.75c2.34,-0.29 5.26,-0.95 6.5,-1.45c1.24,-0.51 4.84,-0.62 8.01,-0.25c4.3,0.5 5.76,0.35 5.75,-0.58c-0.01,-0.79 1.45,-1.25 3.99,-1.25c2.33,0 3.79,0.42 3.5,1c-0.27,0.55 -0.16,1 0.25,1.01c0.41,0 1.65,-0.61 2.75,-1.37c1.1,-0.76 5.15,-2.14 9,-3.07c6.44,-1.56 7.64,-1.57 15,-0.14c4.4,0.85 9.69,1.56 11.75,1.56c2.06,0 3.75,-0.44 3.75,-0.99c0,-0.55 2.59,-1.03 5.75,-1.06c3.16,-0.03 8.23,-0.01 11.25,0.05c3.02,0.06 6.06,0.54 6.75,1.06c0.72,0.55 1.99,0.58 3,0.09c0.96,-0.47 3.66,-0.92 6,-1c2.34,-0.08 4.7,-0.37 5.25,-0.64c0.55,-0.27 1.23,-0.05 1.5,0.5c0.27,0.55 1.06,0.64 1.75,0.2c0.69,-0.44 2.82,-0.74 4.75,-0.68c1.93,0.06 3.95,0.35 4.5,0.64c0.55,0.29 3.02,0.6 5.5,0.68c2.48,0.09 5.18,-0.29 6,-0.83c1.18,-0.78 0.91,-0.99 -1.25,-1c-1.51,-0.01 -3.03,-0.58 -3.36,-1.27c-0.34,-0.69 0.1,-1.93 0.98,-2.75c1.32,-1.24 2.02,-1.29 4.11,-0.25c1.39,0.69 3.09,2.6 3.77,4.25c0.72,1.72 2,3 3,3c0.96,0 1.98,-0.45 2.25,-1c0.27,-0.55 1.29,-0.99 2.25,-0.97c0.96,0.02 2.5,-0.77 3.43,-1.75c1.59,-1.7 1.47,-1.77 -2.5,-1.45c-2.68,0.21 -5.41,-0.32 -7.62,-1.5c-1.9,-1.01 -4.26,-2.51 -5.26,-3.33c-1,-0.82 -1.81,-2.29 -1.8,-3.25c0.01,-1.08 0.78,-1.75 2.01,-1.75c1.17,0 2.21,-0.83 2.5,-2c0.29,-1.14 1.46,-2.11 2.75,-2.25c1.55,-0.17 2.36,-1.03 2.6,-2.75c0.19,-1.37 0.75,-3.06 1.25,-3.75c0.6,-0.82 3.07,-1.16 7.28,-1c3.96,0.16 6.21,-0.13 5.94,-0.75c-0.24,-0.55 0.72,-1.79 2.13,-2.75c1.41,-0.96 3.01,-1.52 3.56,-1.25c0.55,0.27 1,1.4 1,2.5c0,1.33 -0.83,2.17 -2.5,2.5c-1.37,0.27 -2.5,0.95 -2.5,1.5c0,0.57 1.5,0.36 3.5,-0.5c1.93,-0.82 3.73,-1.27 4,-1c0.27,0.27 0.95,0.27 1.5,0c0.66,-0.33 0.66,-0.92 0.01,-1.75c-0.55,-0.69 -0.7,-1.59 -0.33,-2c0.36,-0.41 1.48,-0.75 2.49,-0.75c1.42,0 1.72,0.56 1.33,2.5c-0.33,1.67 0,2.67 1,3c0.82,0.27 4.2,0.5 7.5,0.5c3.3,0 7.13,0.45 8.5,1c1.57,0.63 2.31,1.56 2,2.5c-0.27,0.82 0,1.84 0.61,2.25c0.61,0.41 1.55,0.07 2.08,-0.75c0.71,-1.11 1.07,-1.18 1.39,-0.25c0.23,0.69 1.1,1.25 1.92,1.25c0.98,0 1.48,0.95 1.46,2.75c-0.02,1.51 0.65,3.31 1.5,4c1.25,1.01 1.82,0.96 2.97,-0.25c0.79,-0.83 1.91,-1.5 2.5,-1.5c0.59,0 2.87,-0.56 5.07,-1.25c2.67,-0.83 4,-1.83 4,-3c0,-0.96 0.11,-3.18 0.25,-4.92c0.14,-1.74 0.81,-3.32 1.5,-3.5c1,-0.27 1,-0.64 0,-1.86c-1.03,-1.26 -0.82,-1.98 1.25,-4.11c2.34,-2.42 2.91,-2.54 9,-1.92c3.57,0.36 7.4,0.67 8.5,0.68c1.1,0.02 3.13,0.51 4.5,1.1c1.38,0.59 3.4,0.98 4.5,0.86c1.24,-0.13 2.57,0.77 3.5,2.38c0.92,1.59 2.36,2.58 3.75,2.56c1.24,-0.02 2.48,0.42 2.75,0.97c0.27,0.55 0.95,0.77 1.5,0.5c0.55,-0.27 1,-1.18 1,-2c0,-1.02 -1.19,-1.58 -3.75,-1.75c-2.56,-0.17 -3.75,-0.73 -3.75,-1.75c0,-0.82 1.01,-1.61 2.25,-1.75c1.24,-0.14 3.71,0.48 5.5,1.36c2.81,1.4 3.38,1.42 4.25,0.17c0.69,-0.99 2.71,-1.4 6.5,-1.3c3.02,0.08 6.74,0.68 8.25,1.33c1.51,0.65 2.86,1.69 3,2.32c0.15,0.67 1.16,0.88 2.5,0.5c1.65,-0.46 2.16,-1.24 1.89,-2.91c-0.22,-1.41 0.35,-2.74 1.5,-3.5c1.14,-0.75 2.86,-0.93 4.44,-0.47c1.88,0.55 2.42,1.23 2,2.5c-0.32,0.96 -0.13,1.75 0.42,1.75c0.55,0 1,-0.45 1,-1c0,-0.55 1.24,-1.11 2.75,-1.25c2.32,-0.21 2.79,-0.75 3,-3.5c0.23,-2.96 0.54,-3.25 3.5,-3.21c2.14,0.03 4.02,0.88 5.5,2.5c1.24,1.35 1.8,2.46 1.25,2.46c-0.55,0 -1.23,0.9 -1.5,2c-0.32,1.28 -1.46,2.09 -3.17,2.25c-1.47,0.14 -2.82,0.81 -3,1.5c-0.18,0.69 0.46,1.98 1.42,2.87c1.59,1.48 1.61,1.72 0.15,2.75c-0.88,0.62 -1.89,2.14 -2.25,3.38c-0.36,1.24 -1.1,2.25 -1.65,2.25c-0.55,0 -1.11,-0.71 -1.25,-1.59c-0.2,-1.25 -0.78,-1.04 -5.25,3.64l2.25,-0.03c1.82,-0.02 2.15,0.4 1.74,2.22c-0.44,1.96 -0.21,2.15 1.75,1.51c1.24,-0.4 2.79,-0.74 3.43,-0.75c0.65,-0.01 1.89,-0.69 2.75,-1.51c0.86,-0.82 1.57,-2.62 1.57,-4c0,-1.37 0.56,-2.51 1.25,-2.53c0.69,-0.02 0.35,-0.68 -0.75,-1.47c-1.31,-0.94 -1.74,-1.97 -1.25,-2.97c0.41,-0.84 1.96,-1.53 3.45,-1.53c1.75,0 3.47,-0.97 4.89,-2.75c1.99,-2.5 2.43,-2.64 4.8,-1.5c1.44,0.69 3.06,1.02 3.61,0.75c0.55,-0.27 3.36,-0.06 6.25,0.47c2.89,0.53 5.92,1.68 6.75,2.55c0.83,0.87 2.96,2.01 4.75,2.53c2.71,0.79 3.58,0.61 5.25,-1.05c1.1,-1.1 2.9,-2 4,-2c1.1,0 2.17,-0.56 2.38,-1.25c0.3,-1 0.65,-1 1.75,0c1.05,0.95 1.1,1.55 0.21,2.5c-0.64,0.69 -0.95,1.93 -0.7,2.75c0.38,1.22 2.25,1.45 10.16,1.23c5.33,-0.15 10.13,-0.71 10.65,-1.25c0.52,-0.54 3,-0.99 5.5,-0.99c3.57,-0.01 5.03,-0.55 6.8,-2.5c1.24,-1.37 2.92,-2.26 3.75,-1.99c0.83,0.27 1.5,1.18 1.5,2c0,0.96 0.99,1.51 2.75,1.53c1.51,0.02 4.1,-0.66 5.75,-1.49c1.65,-0.84 2.55,-1.51 2,-1.49c-0.55,0.02 -0.33,-0.72 0.5,-1.65c0.85,-0.95 1.39,-3.15 1.25,-5.04c-0.18,-2.43 0.17,-3.35 1.25,-3.35c0.83,0 1.5,0.89 1.5,2c0,1.47 0.67,2 2.5,2c1.38,0 3.51,-0.92 4.75,-2.05c1.24,-1.13 3.05,-2.81 4.02,-3.75c1.69,-1.62 1.64,-1.75 -1,-2.79c-1.53,-0.6 -4.12,-1.37 -5.77,-1.72c-2.28,-0.48 -3.84,-0.04 -6.5,1.85c-1.92,1.37 -3.07,2.48 -2.55,2.47c0.52,-0.01 0.43,0.55 -0.21,1.23c-0.92,1 -1.5,0.95 -2.86,-0.25c-1.28,-1.13 -1.79,-1.19 -2.04,-0.25c-0.19,0.69 -0.79,1.25 -1.34,1.25c-0.55,0 -0.77,-0.68 -0.5,-1.5c0.27,-0.82 0.16,-1.71 -0.25,-1.96c-0.41,-0.26 -1.87,-0.73 -3.25,-1.05c-1.37,-0.32 -4.75,-0.85 -7.5,-1.17c-4.62,-0.54 -5.25,-0.35 -8.25,2.55c-1.79,1.72 -3.7,2.91 -4.25,2.63c-0.55,-0.27 -1.24,0.29 -1.52,1.25c-0.43,1.44 -0.74,1.51 -1.75,0.43c-0.98,-1.05 -0.88,-1.56 0.48,-2.5c0.94,-0.65 1.73,-2.42 1.75,-3.93c0.02,-1.71 0.89,-3.32 2.29,-4.26c1.41,-0.95 4.58,-1.5 8.5,-1.5c3.44,0 6.32,-0.33 6.41,-0.74c0.09,-0.41 0.2,-2.03 0.25,-3.6c0.06,-1.77 -0.57,-3.19 -1.66,-3.75c-1.08,-0.56 -2.33,-0.52 -3.25,0.1c-0.83,0.55 -1.95,0.77 -2.5,0.5c-0.55,-0.27 -1,-1.62 -1,-3c0,-1.67 -0.67,-2.67 -2,-3c-1.1,-0.27 -2,-1.18 -2,-2c0,-0.82 0.67,-1.5 1.5,-1.5c0.83,0 1.5,-0.68 1.5,-1.5c0,-0.82 -0.45,-1.5 -1,-1.5c-0.55,0 -1,-0.56 -1.01,-1.25c-0.01,-0.69 0.89,-2.04 2,-3c1.11,-0.96 2.68,-1.75 3.51,-1.75c0.83,0 1.5,0.45 1.5,1c0,0.55 0.9,1 2,1c1.1,0 2.11,0.48 2.25,1.07c0.14,0.59 1.83,1.15 3.75,1.25c3.25,0.17 3.48,-0.02 3.25,-2.57c-0.17,-1.86 0.32,-2.96 1.5,-3.4c1.05,-0.39 2.15,-0.05 2.75,0.86c0.66,0.99 4.27,1.94 10.5,2.77c5.23,0.69 10.81,1.32 12.4,1.39c2.65,0.12 3,-0.27 4,-4.36c0.86,-3.54 1.63,-4.62 3.6,-5.07c1.38,-0.32 3.97,-1.22 5.76,-2.01c1.79,-0.78 3.25,-1.99 3.25,-2.68c0,-0.69 0.55,-1.44 1.24,-1.67c0.69,-0.23 2.04,0.44 3,1.5c1.36,1.5 2.36,1.74 4.5,1.1c1.51,-0.45 3.88,-1.58 5.25,-2.51c1.38,-0.93 3.51,-1.68 4.75,-1.68c1.33,0 2.25,0.62 2.25,1.51c0,0.82 0.36,1.5 0.8,1.5c0.44,0 1.23,-0.49 1.75,-1.09c0.68,-0.77 1.74,-0.63 3.7,0.5c1.51,0.87 2.52,2.04 2.25,2.59c-0.27,0.55 -1.17,0.78 -2,0.5c-0.83,-0.28 -1.5,-0.05 -1.5,0.5c0,0.55 0.67,1 1.5,1c0.83,0 1.5,0.68 1.5,1.5c0,0.82 0.45,1.5 1,1.5c0.55,0 1.23,1.57 1.5,3.5c0.41,2.9 0.84,3.41 2.5,3c1.1,-0.28 2,-0.95 2,-1.5c0,-0.55 0.92,-2.24 2.03,-3.75c1.12,-1.51 2.02,-3.31 2,-4c-0.02,-0.69 -0.93,-1.25 -2.03,-1.25c-1.1,0 -2.23,-0.45 -2.5,-1c-0.27,-0.55 -1.5,-1 -2.71,-1c-1.97,0 -2.05,-0.18 -0.75,-1.56c1.2,-1.28 2.14,-1.37 5.21,-0.5c2.86,0.81 3.97,0.77 4.65,-0.19c0.5,-0.69 1.18,-2.35 1.51,-3.7c0.42,-1.69 1.31,-2.45 2.85,-2.46c1.23,0 2.91,0.4 3.74,0.89c0.98,0.58 1.59,0.48 1.75,-0.29c0.14,-0.65 1.73,-1.19 3.55,-1.19c1.81,0 3.88,-0.56 4.59,-1.24c1.03,-0.99 1.48,-0.94 2.2,0.25c0.69,1.13 1.09,1.2 1.66,0.26c0.45,-0.75 4.89,-1.58 11.25,-2.11c5.77,-0.48 12.08,-0.93 14,-0.99zM1128.31,235.2c-4.05,-0.65 -4.34,-0.55 -4.33,1.55c0.01,1.24 0.69,2.47 1.52,2.75c0.83,0.28 1.5,0.05 1.5,-0.5c0,-0.55 1.77,-0.89 3.93,-0.75c3.39,0.22 3.98,-0.06 4.31,-2c0.21,-1.24 0.35,-2.24 0.32,-2.23c-0.03,0.01 -0.7,0.44 -1.48,0.95c-0.78,0.51 -3.38,0.62 -5.77,0.23zM1065,240.62c3.58,0.78 8.19,2.31 10.25,3.4l3.75,1.98c0,-4 -0.8,-5.4 -2,-6c-1.1,-0.55 -5.71,-0.95 -10.25,-0.9l-8.25,0.1M722,252.5c0.55,0.28 1,0.05 1,-0.5c0,-0.55 0.9,-1 2,-1c1.11,0 1.85,-0.56 1.67,-1.25c-0.18,-0.69 -1.04,-1.39 -1.9,-1.56c-0.86,-0.17 -2.06,0.62 -2.67,1.75c-0.72,1.35 -0.76,2.23 -0.1,2.56zM686.94,256c-1.69,1.93 -2.82,4.06 -2.51,4.75c0.32,0.69 1.02,1.02 1.57,0.75c0.55,-0.27 1,-1.4 1,-2.5c0,-1.18 1.33,-2.82 3.25,-4c1.79,-1.1 2.69,-2 2,-2c-0.69,0 -1.42,-0.79 -1.63,-1.75c-0.26,-1.2 -0.42,-1.28 -0.49,-0.25c-0.06,0.82 -1.49,3.07 -3.19,5zM704.75,255.59c1.27,0.8 2.92,1.09 3.79,0.66c1.25,-0.61 1.09,-0.95 -0.89,-1.85c-1.34,-0.6 -3.04,-0.9 -3.79,-0.66c-0.95,0.3 -0.69,0.85 0.89,1.85zM2484.25,264.93c1.79,-0.04 4.15,-0.46 5.25,-0.93c1.51,-0.65 0.85,-0.88 -2.7,-0.93c-2.59,-0.04 -4.95,0.38 -5.25,0.93c-0.32,0.58 0.82,0.97 2.7,0.93zM2428.63,268.75c0.86,0.78 1.56,0.87 1.87,0.25c0.28,-0.55 1.18,-0.77 2,-0.5c0.82,0.27 1.72,0.05 2,-0.5c0.3,-0.59 -0.21,-0.72 -1.25,-0.31c-1.5,0.59 -1.57,0.44 -0.5,-1c0.69,-0.93 0.88,-1.85 0.43,-2.05c-0.45,-0.2 -1.97,0.36 -3.37,1.25c-2.13,1.35 -2.32,1.82 -1.18,2.87zM2468.25,266.46c0.14,0.25 1.88,0.19 3.88,-0.13c1.99,-0.32 3.46,-0.98 3.25,-1.46c-0.21,-0.48 -1.7,-0.87 -3.33,-0.87c-1.62,0 -3.2,0.45 -3.5,1c-0.3,0.55 -0.44,1.21 -0.3,1.46zM2385.25,278.52c1.79,0.84 4.26,1.51 5.5,1.5c1.24,-0.01 2.05,-0.47 1.81,-1.02c-0.24,-0.55 -1.14,-1 -2,-1c-0.86,0 -2.23,-0.68 -3.06,-1.5c-0.82,-0.82 -2.15,-1.5 -2.95,-1.5c-0.8,0 -1.7,0.45 -2,1c-0.3,0.55 0.91,1.68 2.7,2.52zM2265.5,294c0.28,0.55 1.29,0.7 2.25,0.32c0.96,-0.37 2.06,-1.16 2.45,-1.75c0.38,-0.59 0.16,-1.4 -0.5,-1.81c-0.66,-0.4 -1.48,-0.74 -1.84,-0.75c-0.35,-0.01 -1.14,0.66 -1.75,1.48c-0.61,0.82 -0.89,1.95 -0.61,2.5zM1865.67,295.75c0.21,0.81 0.95,0.49 2.08,-0.91c1.21,-1.49 2.21,-1.89 3.25,-1.3c0.83,0.47 2.63,1 4,1.17c2.24,0.28 2.34,0.15 1,-1.25c-0.83,-0.86 -2.62,-1.5 -4,-1.42c-1.37,0.08 -3.44,0.66 -4.58,1.29c-1.14,0.63 -1.93,1.71 -1.75,2.4zM2140.5,295.32c-1.9,-0.67 -1.91,-0.62 -0.25,0.99c1.65,1.6 1.91,1.52 4.61,-1.31c1.6,-1.68 2.28,-3 1.55,-3c-0.72,0 -1.89,0.9 -2.61,2.01c-0.92,1.43 -1.88,1.81 -3.3,1.31zM479.41,296.58c-1.28,1.33 -3.02,2.42 -3.87,2.42c-0.85,0 -1.55,-0.45 -1.55,-1c0,-0.55 -0.68,-1 -1.5,-1c-0.89,0 -1.3,0.61 -1,1.5c0.27,0.82 0.5,2.96 0.51,4.75c0.01,2.46 0.61,3.55 2.5,4.5c2.22,1.11 2.74,0.98 4.74,-1.21c1.24,-1.35 2.7,-2.49 3.25,-2.52c0.55,-0.03 0.89,-1.18 0.75,-2.54c-0.16,-1.59 0.47,-2.93 1.75,-3.73c1.1,-0.69 2.05,-1.79 2.1,-2.44c0.05,-0.66 -0.34,-1.35 -0.87,-1.55c-0.53,-0.2 -1.76,-0.19 -2.73,0.02c-0.97,0.21 -2.81,1.47 -4.09,2.8zM1361,296.29c-2.43,-0.51 -2.45,-0.48 -0.5,1.03c1.97,1.53 1.97,1.56 -0.5,2.46c-2.45,0.89 -2.43,0.93 1,1.57c1.92,0.36 3.72,0.26 4,-0.23c0.28,-0.49 2.3,-1.37 4.5,-1.97c3.05,-0.82 4.15,-0.79 4.62,0.14c0.43,0.85 0.82,0.68 1.25,-0.53c0.52,-1.44 0.05,-1.75 -2.62,-1.73c-1.79,0.01 -3.72,-0.39 -4.29,-0.88c-0.57,-0.49 -1.92,-0.54 -3,-0.11c-1.08,0.43 -3.09,0.55 -4.46,0.26zM411.21,300.75c-0.93,1.73 -0.94,2.31 -0.02,2.5c0.65,0.14 0.88,0.81 0.5,1.5c-0.38,0.69 -2.19,1.25 -4.02,1.25c-1.83,0 -3.63,0.23 -4,0.5c-0.37,0.27 -0.1,1.4 0.58,2.5c0.69,1.1 2.04,2 3,2c0.96,0 1.76,0.56 1.78,1.25c0.02,0.69 0.47,0.46 1,-0.5c0.53,-0.96 1.87,-1.75 2.97,-1.75c1.1,0 3.24,1.11 4.75,2.47c2.2,1.97 3.56,2.39 6.75,2.06c2.2,-0.22 5.13,-1.31 6.5,-2.43l2.5,-2.02c-3.49,-0.84 -4.5,-1.64 -4.51,-2.33c0,-0.69 -1.13,-1.81 -2.5,-2.5c-2.11,-1.06 -3.18,-0.94 -6.99,0.75c-2.48,1.1 -4.73,2 -5,2c-0.27,0 -0.5,-0.68 -0.5,-1.5c0,-0.82 0.45,-1.5 1,-1.5c0.55,0 0.99,-0.79 0.98,-1.75c-0.01,-0.96 -0.92,-2.87 -2.03,-4.25c-1.1,-1.37 -1.9,-2.05 -1.77,-1.5c0.13,0.55 -0.31,2.01 -0.97,3.25zM569.25,304.84c1.89,1.12 2.37,1.12 2.99,0c0.4,-0.74 0.84,-1.63 0.97,-1.98c0.13,-0.35 -0.88,-0.9 -2.23,-1.24c-1.36,-0.33 -2.81,-0.61 -3.22,-0.62c-0.41,-0.01 -0.75,0.55 -0.75,1.24c0,0.69 1.01,1.85 2.25,2.59zM1809.75,308.86c0.96,0.48 2.31,0.7 3,0.5c0.7,-0.2 1.03,-1.25 0.75,-2.36c-0.33,-1.33 -1.33,-2 -3,-2c-1.56,0 -2.5,0.57 -2.5,1.5c0,0.82 0.79,1.89 1.75,2.36zM1414,319.43c0.83,0.23 3.08,0.3 5,0.17c1.92,-0.13 4.29,-0.54 5.25,-0.92c1.01,-0.39 1.43,-1.16 1,-1.8c-0.41,-0.61 -0.08,-1.55 0.75,-2.09c1.12,-0.73 0.99,-0.79 -0.5,-0.21c-1.1,0.42 -4.14,0.92 -6.75,1.09c-2.72,0.18 -4.75,-0.11 -4.75,-0.68c0,-0.55 -0.34,-1 -0.75,-1c-0.41,0 -0.75,1.13 -0.75,2.51c0,1.38 0.67,2.7 1.5,2.92zM1401.5,318.46c-1.78,0.76 -1.81,0.89 -0.25,1.19c0.96,0.19 3.1,-0.33 4.75,-1.15c1.65,-0.82 3,-1.95 3,-2.5c0,-0.55 -0.64,-1 -1.43,-1c-0.79,0 -2.02,0.59 -2.75,1.31c-0.73,0.72 -2.22,1.69 -3.32,2.15zM166.5,335c0.82,0 1.5,0.68 1.5,1.5c0,1.02 1.05,1.51 3.25,1.54c2.93,0.04 3.1,-0.11 1.75,-1.54c-0.82,-0.87 -2.29,-1.57 -3.25,-1.54c-0.96,0.02 -1.97,-0.41 -2.25,-0.96c-0.28,-0.55 -1.22,-1 -2.1,-1c-0.88,0 -1.33,0.45 -1,1c0.33,0.55 1.28,1 2.1,1zM1331.25,262.08c0.96,-0.04 1.97,0.37 2.25,0.92c0.28,0.55 -1.3,1.45 -3.5,2c-2.2,0.55 -4.79,0.69 -5.75,0.32c-1.39,-0.54 -1.04,-0.93 1.75,-1.92c1.92,-0.68 4.29,-1.28 5.25,-1.32zM1343.1,276.4c3.07,0.06 5.28,0.53 5.13,1.1c-0.15,0.55 -1.5,1.31 -3,1.68c-1.5,0.38 -3.74,0.26 -4.98,-0.25c-1.24,-0.51 -2.32,-1.32 -2.4,-1.78c-0.08,-0.47 2.28,-0.81 5.25,-0.75zM660.55,278c0.8,0 1.45,0.9 1.45,2c0,1.11 -0.67,2 -1.5,2c-0.83,0 -1.73,-0.45 -2,-1c-0.27,-0.55 -0.25,-1.45 0.05,-2c0.3,-0.55 1.2,-1 2,-1zM1457.25,302.06c0.96,-0.03 1.97,0.39 2.25,0.94c0.28,0.55 -1.19,1.71 -3.25,2.59c-2.06,0.87 -4.42,1.28 -5.25,0.9c-1.05,-0.48 -1.29,-0.29 -0.81,0.66c0.4,0.78 -0.23,2.34 -1.5,3.69c-1.52,1.62 -2.5,2.01 -3.19,1.27c-0.67,-0.71 -0.49,-1.79 0.57,-3.28c0.86,-1.22 3.34,-3.23 5.5,-4.46c2.16,-1.24 4.72,-2.27 5.68,-2.3zM1442.92,310.96c0.32,-0.02 1.15,0.65 1.83,1.5c0.69,0.85 1.03,2.22 0.75,3.04c-0.28,0.82 -1.4,1.5 -2.5,1.5c-1.38,0 -2.05,-0.72 -2.17,-2.33c-0.09,-1.28 0.21,-2.63 0.67,-3c0.46,-0.37 1.1,-0.69 1.42,-0.71zM46.84,319c0.41,0 3.2,0.64 6.2,1.41c4.19,1.09 4.76,1.43 2.46,1.49c-1.65,0.04 -4.66,-0.26 -6.68,-0.66c-2.03,-0.41 -3.47,-1.08 -3.2,-1.49c0.27,-0.41 0.81,-0.75 1.22,-0.75zM119.73,319.02c0.43,0.01 0.66,1.14 0.52,2.5c-0.19,1.93 -0.97,2.61 -3.5,3.07c-1.79,0.33 -4.15,0.4 -5.25,0.17c-1.43,-0.3 -0.78,-0.76 2.25,-1.59c2.34,-0.64 4.46,-1.85 4.73,-2.67c0.26,-0.82 0.82,-1.49 1.25,-1.48zM236.5,319c2.44,0 3.5,0.45 3.5,1.5c0,0.93 -0.94,1.5 -2.5,1.5c-1.37,0 -2.5,0.45 -2.5,1c0,0.55 -0.45,0.77 -1,0.5c-0.55,-0.27 -1,-1.4 -1,-2.5c0,-1.62 0.67,-2 3.5,-2z" />
</svg>
