<?xml version="1.0" encoding="iso-8859-1"?>
<!-- Generator: Adobe Illustrator 16.0.0, SVG Export Plug-In . SVG Version: 6.00 Build 0)  -->
<!DOCTYPE svg PUBLIC "-//W3C//DTD SVG 1.1//EN" "http://www.w3.org/Graphics/SVG/1.1/DTD/svg11.dtd">
<svg version="1.1" id="Capa_1" xmlns="http://www.w3.org/2000/svg" xmlns:xlink="http://www.w3.org/1999/xlink" x="0px" y="0px"
	 width="381.399px" height="381.399px" viewBox="0 0 381.399 381.399" style="enable-background:new 0 0 381.399 381.399;"
	 xml:space="preserve">
<g>
	<path d="M243.838,134.901l-63.661-25.147v266.551c0,2.816-2.288,5.094-5.099,5.094h-51.019c-2.812,0-5.099-2.277-5.099-5.094
		V109.754l-63.654,25.147c-2.134,0.834-4.566,0.15-5.956-1.669c-0.684-0.919-1.026-2.009-1.026-3.079
		c0-1.086,0.354-2.188,1.059-3.108L145.521,1.991C146.489,0.736,147.985,0,149.567,0c1.58,0,3.082,0.741,4.05,1.991l96.133,125.055
		c1.41,1.819,1.416,4.342,0.032,6.187C248.402,135.052,245.972,135.735,243.838,134.901z M333.076,306.969h-44.124v-44.127h-29.42
		v44.127h-44.124v29.417h44.124v44.126h29.42v-44.126h44.124V306.969z"/>
</g>
<g>
</g>
<g>
</g>
<g>
</g>
<g>
</g>
<g>
</g>
<g>
</g>
<g>
</g>
<g>
</g>
<g>
</g>
<g>
</g>
<g>
</g>
<g>
</g>
<g>
</g>
<g>
</g>
<g>
</g>
</svg>
