<?xml version="1.0" encoding="iso-8859-1"?>
<!-- Generator: Adobe Illustrator 16.0.0, SVG Export Plug-In . SVG Version: 6.00 Build 0)  -->
<!DOCTYPE svg PUBLIC "-//W3C//DTD SVG 1.1//EN" "http://www.w3.org/Graphics/SVG/1.1/DTD/svg11.dtd">
<svg version="1.1" id="Capa_1" xmlns="http://www.w3.org/2000/svg" xmlns:xlink="http://www.w3.org/1999/xlink" x="0px" y="0px"
	 width="411.98px" height="411.98px" viewBox="0 0 411.98 411.98" style="enable-background:new 0 0 411.98 411.98;"
	 xml:space="preserve">
<g>
	<path d="M269.809,268.065c1.495,1.986,1.489,4.717-0.036,6.691l-103.84,135.078c-1.046,1.354-2.663,2.146-4.374,2.146
		c-1.702,0-3.325-0.792-4.371-2.146L53.341,274.744c-0.768-0.993-1.144-2.175-1.144-3.356c0-1.147,0.37-2.329,1.108-3.322
		c1.496-1.969,4.129-2.707,6.434-1.809l68.757,27.166V5.5c0-3.044,2.471-5.5,5.509-5.5h55.109c3.038,0,5.509,2.456,5.509,5.5
		v287.923l68.766-27.166C265.694,265.358,268.319,266.103,269.809,268.065z M359.782,48.625h-47.664V0.961h-31.777v47.664h-47.664
		v31.776h47.664v47.665h31.777V80.401h47.664V48.625z"/>
</g>
<g>
</g>
<g>
</g>
<g>
</g>
<g>
</g>
<g>
</g>
<g>
</g>
<g>
</g>
<g>
</g>
<g>
</g>
<g>
</g>
<g>
</g>
<g>
</g>
<g>
</g>
<g>
</g>
<g>
</g>
</svg>
